<svg id="logo.svg" xmlns="http://www.w3.org/2000/svg" width="328.094" height="46.188" viewBox="0 0 328.094 46.188">
  <defs>
    <style>
      .cls-1, .cls-2, .cls-3 {
        fill-rule: evenodd;
      }

      .cls-2 {
        fill: #505050;
      }

      .cls-3 {
        fill: navy;
      }

      .cls-4 {
        fill: #fff;
      }
    </style>
  </defs>
  <path id="関西総合システム株式会社" class="cls-1" d="M319.683,59.579a9.188,9.188,0,0,1,1.62.1v-1.84a8.417,8.417,0,0,1-1.6.1h-2.921c0.04-.42.06-0.78,0.08-1.22h2.681a8.9,8.9,0,0,1,1.42.08v-1.74a9.34,9.34,0,0,1-1.44.08h-0.68a15.934,15.934,0,0,0,.84-1.46l-1.941-.38a8.82,8.82,0,0,1-.88,1.84h-1.64a15.953,15.953,0,0,0-1.14-1.84l-1.841.46a9.726,9.726,0,0,1,.981,1.38h-0.681a8.779,8.779,0,0,1-1.4-.08V56.8a9.34,9.34,0,0,1,1.44-.08H314.9c-0.02.6-.02,0.78-0.06,1.22h-2.481a8.546,8.546,0,0,1-1.6-.1v1.84a11.179,11.179,0,0,1,1.74-.1h1.961a4.07,4.07,0,0,1-1.541,1.72,8.31,8.31,0,0,1-2.58.96,5.923,5.923,0,0,1,1.12,1.74c2.381-.78,3.641-1.7,4.521-3.3A9.33,9.33,0,0,0,319.9,63.42c0.1-.3.12-0.4,0.22-0.66a6.244,6.244,0,0,1,.34,1.64c0.52,0.02.76,0.02,1.16,0.02,2.381,0,2.841-.36,2.841-2.24V48.9a18.056,18.056,0,0,1,.1-2.221,18.165,18.165,0,0,1-2.06.08h-3.881a17.338,17.338,0,0,1-2.041-.08c0.04,0.58.06,1.1,0.06,1.86v2.841c0,0.88-.02,1.3-0.06,1.8,0.52-.04,1.141-0.06,1.841-0.06h3.94v8.8c0,0.44-.12.54-0.62,0.54a8.922,8.922,0,0,1-1.44-.12,6.834,6.834,0,0,1,.44-0.84,6.65,6.65,0,0,1-3.561-1.92h2.5Zm-1.06-11.322h3.74v0.98h-3.74v-0.98Zm0,2.34h3.74v0.98h-3.74V50.6Zm-8.882,2.52H313.4c0.74,0,1.32.02,1.86,0.06-0.04-.44-0.06-0.9-0.06-1.8V48.537c0-.78.02-1.3,0.06-1.86a16.9,16.9,0,0,1-2.04.08H309.6a17.789,17.789,0,0,1-2.041-.08,22.184,22.184,0,0,1,.08,2.241V62.1a17.886,17.886,0,0,1-.12,2.48h2.341a17.275,17.275,0,0,1-.12-2.42V53.118Zm0-4.861h3.5v0.98h-3.5v-0.98Zm0,2.34h3.5v0.98h-3.5V50.6Zm22.861-1.36v2.24h-2.741a18.787,18.787,0,0,1-2.341-.1,23.923,23.923,0,0,1,.12,2.421V61.88a22.067,22.067,0,0,1-.12,2.581h2.241V63.3h11.7v1.16H343.7a20.112,20.112,0,0,1-.12-2.561V53.8a22.118,22.118,0,0,1,.1-2.421,19.363,19.363,0,0,1-2.341.1h-2.98v-2.24h3.981a21.145,21.145,0,0,1,2.32.12V47.077a18.831,18.831,0,0,1-2.34.12h-13.4a19.2,19.2,0,0,1-2.361-.12v2.281a20.9,20.9,0,0,1,2.321-.12H332.6Zm2.04,0h1.74v2.24h-1.74v-2.24Zm-2.121,4.281a5.994,5.994,0,0,1-.92,3.281,4.919,4.919,0,0,1-1.84,1.54V53.518h2.76Zm3.861,0V57c0,1.4.48,1.74,2.421,1.74,1.44,0,2.06-.26,2.36-0.96a4.713,4.713,0,0,0,.26-1.5,0.656,0.656,0,0,1,.04-0.34v5.3h-11.7V58.459a6.184,6.184,0,0,1,1.52,1.46,6.409,6.409,0,0,0,2.4-2.52,9.027,9.027,0,0,0,.88-3.881h1.82Zm1.981,0h3.1v2.14a4.234,4.234,0,0,1-1.64-.5c0,1.56-.02,1.62-0.78,1.62-0.6,0-.68-0.04-0.68-0.42V53.518ZM346.28,56.7a18.206,18.206,0,0,1,2.741-.24V62.64a15.47,15.47,0,0,1-.12,2.1l2.16-.02a13.921,13.921,0,0,1-.12-2.1v-6.3c0.52-.06.68-0.08,0.8-0.08,0.38-.06.38-0.06,0.6-0.08,0.08,0.34.1,0.46,0.18,0.86l1.54-.58a18.753,18.753,0,0,0-1.48-3.881l-1.341.6a10.286,10.286,0,0,1,.58,1.3c-0.88.08-1.08,0.1-2.08,0.14a40.947,40.947,0,0,0,2.741-3.961,4.915,4.915,0,0,1,1.38,1.6A12.63,12.63,0,0,0,357.6,47.7c0.1-.16.1-0.16,0.22-0.34a0.891,0.891,0,0,1,.1-0.16l-1.941-.94a8.2,8.2,0,0,1-.96,1.84,7.665,7.665,0,0,1-2.46,2.42,1.628,1.628,0,0,1,.16-0.24c0.08-.14.14-0.22,0.16-0.26l0.52-.78-1.9-.96a17.912,17.912,0,0,1-1.86,3.441c-0.22-.32-0.38-0.54-0.7-0.94a25.645,25.645,0,0,0,1.88-3.241,3.922,3.922,0,0,1,.38-0.68l-1.98-.86a12.159,12.159,0,0,1-1.48,3.341c-0.241-.26-0.341-0.38-0.661-0.74l-1.06,1.64a19.9,19.9,0,0,1,2.5,3.121c-0.36.52-.58,0.82-0.96,1.3a3.008,3.008,0,0,1-.381.02,7.378,7.378,0,0,1-1.12-.08Zm17.684-1.4a34.44,34.44,0,0,0-3.1-4.681l-1.6.88a21.021,21.021,0,0,1,1.22,1.76c-1,.12-1.26.14-3.2,0.28a25.181,25.181,0,0,0,1.26-2.28l0.84-1.62-2.06-.64a13.775,13.775,0,0,1-1.181,2.8,15.165,15.165,0,0,1-1.06,1.84c-0.36.02-.46,0.02-0.62,0.02a4,4,0,0,1-.68-0.04l0.28,2.1c0.4-.06.84-0.1,3.261-0.34l-1.241,1.04a10.543,10.543,0,0,1,3.121,2.561l1.4-1.46a17.9,17.9,0,0,0-2.92-2.18c2.14-.2,2.2-0.22,3.7-0.46,0.281,0.52.381,0.74,0.781,1.58ZM353.222,61.12a11.164,11.164,0,0,1-.68,1.44l1.82,1.06a17.888,17.888,0,0,0,1.24-5.2l-1.8-.4a10.874,10.874,0,0,1-.42,2.581,18.045,18.045,0,0,0-.6-3.341l-1.481.4a18.343,18.343,0,0,1,.54,3.881Zm-6.362-3.741a18.683,18.683,0,0,1-.84,5.481l1.721,0.76a24.773,24.773,0,0,0,.82-5.981Zm12.1-10.182q0.3,0.42.36,0.48a13.712,13.712,0,0,0,4.281,4.241,6.3,6.3,0,0,1,1.16-1.9,9.624,9.624,0,0,1-2.16-1.54,10.175,10.175,0,0,1-1.881-2.3Zm-3.081,10.6a12.326,12.326,0,0,1,.1,1.5V62.96a1.19,1.19,0,0,0,.38,1.08,4.044,4.044,0,0,0,2,.34c2.92,0,3.2-.28,3.461-3.561a4.178,4.178,0,0,1-1.8-.6c-0.02,1.52-.06,1.86-0.28,2.1a1.445,1.445,0,0,1-.88.2c-0.9,0-.94-0.02-0.94-0.46V59.079A9.171,9.171,0,0,1,358,57.8h-2.121Zm5.1,0.32a19.1,19.1,0,0,1,1.741,5.2l1.96-.94a24.767,24.767,0,0,0-1.96-5.021Zm8.678-3.921a15.059,15.059,0,0,1,1.72-.08h6.842a14.559,14.559,0,0,1,1.8.08V52.8a19.442,19.442,0,0,0,3.261,1.76,10.772,10.772,0,0,1,1.1-2.2,18.808,18.808,0,0,1-5.1-2.741,13.089,13.089,0,0,1-3.361-3.381h-2.38a13.973,13.973,0,0,1-3.141,3.341,19.985,19.985,0,0,1-5.1,2.881,7.748,7.748,0,0,1,1.16,2.04,20.321,20.321,0,0,0,3.2-1.68V54.2Zm1.74-2.16h-0.56a13.99,13.99,0,0,0,3.921-3.9,18.275,18.275,0,0,0,4.121,3.9H371.4Zm-0.98,12.483V63.5h8.742v1.02h2.381a12.5,12.5,0,0,1-.12-2.1V57.739a13.637,13.637,0,0,1,.1-1.98,13.146,13.146,0,0,1-1.741.08h-10a12.6,12.6,0,0,1-1.72-.08,18.063,18.063,0,0,1,.1,1.98V62.4a16,16,0,0,1-.12,2.12h2.38Zm0-6.741h8.742V61.54h-8.742V57.779Zm16.12-8.642a23.49,23.49,0,0,1,5.341,2.761l1.28-2.2a32.037,32.037,0,0,0-5.321-2.581ZM384.961,54a23.417,23.417,0,0,1,5.421,2.941l1.24-2.261a28.285,28.285,0,0,0-5.321-2.721Zm1.14,9.642a12.918,12.918,0,0,1,1.4-.32c4.921-.98,8.322-2.761,10.863-5.681a17.465,17.465,0,0,0,3-5.061,10.329,10.329,0,0,1-2.08-1.78,14.8,14.8,0,0,1-2.321,4.421,12.224,12.224,0,0,1-5.781,4.4,18.309,18.309,0,0,1-5.781,1.3Zm31.423-2.06c-2.42-2.341-2.42-2.341-2.92-2.781a31.083,31.083,0,0,0-3.7-2.9,26.542,26.542,0,0,0,3.121-5.521,3.847,3.847,0,0,1,.64-1.08l-1.321-1.36a4.332,4.332,0,0,1-1.78.22l-7.041.1h-0.48a8.756,8.756,0,0,1-1.761-.12l0.08,2.561a15.763,15.763,0,0,1,2.181-.16c6.3-.1,6.3-0.1,6.621-0.12l-0.22.52a19.284,19.284,0,0,1-6.721,8.142,16.535,16.535,0,0,1-4,2.2,8.025,8.025,0,0,1,1.62,2.221,23.776,23.776,0,0,0,7.622-5.781A38.456,38.456,0,0,1,415.6,63.66ZM432,54.838a19.789,19.789,0,0,1,2.54.1v-2.38a14.206,14.206,0,0,1-2.58.14h-11.7a14.077,14.077,0,0,1-2.58-.14v2.38a19.789,19.789,0,0,1,2.54-.1H425.1a8.5,8.5,0,0,1-.88,3.781c-0.84,1.54-2.34,2.6-4.741,3.341a6.35,6.35,0,0,1,1.621,2.2c2.7-1.08,4.161-2.18,5.221-3.941a10.864,10.864,0,0,0,1.4-5.381H432Zm-12.3-4.881a18.859,18.859,0,0,1,2.541-.1H430a18.842,18.842,0,0,1,2.54.1v-2.44a13.569,13.569,0,0,1-2.58.14h-7.682a13.581,13.581,0,0,1-2.581-.14v2.441Zm20.441-3.181a31.642,31.642,0,0,1-1.46,5.541c-1.04,3.281-1.84,5.541-2.9,8.062-0.84.04-1.32,0.06-1.72,0.06h-0.52l0.36,2.7a10.94,10.94,0,0,1,1.82-.24c5.982-.58,9.3-1,11.323-1.42,0.46-.1.46-0.1,0.72-0.16a20.488,20.488,0,0,1,.96,2.481l2.421-1.26a46.852,46.852,0,0,0-4.841-9.262l-2.261.88a24.834,24.834,0,0,1,1.9,3.181c0.481,0.9.721,1.34,0.941,1.82a79.083,79.083,0,0,1-8.322,1.02,119.078,119.078,0,0,0,3.961-11.4,6.122,6.122,0,0,1,.52-1.44ZM464.1,51.438h2.36a15.47,15.47,0,0,1,2.14.12v-2.2a14.708,14.708,0,0,1-2.14.12H464.1V48.1a11.747,11.747,0,0,1,.12-1.9H461.9a11.919,11.919,0,0,1,.12,1.9v1.38H460.4c0.1-.38.14-0.52,0.26-0.98a10.9,10.9,0,0,1,.3-1.08l-2.041-.52a12.883,12.883,0,0,1-1.52,4.861v-1.98a5.407,5.407,0,0,1-1.08.08h-0.6v-1.62a17.275,17.275,0,0,1,.1-2.06h-2.3a12.3,12.3,0,0,1,.12,2.06v1.62h-1a5.757,5.757,0,0,1-1.34-.1v2.16a6.079,6.079,0,0,1,1.34-.1h0.8a18.358,18.358,0,0,1-2.68,6.041,7.273,7.273,0,0,1,.92,2.221,15.861,15.861,0,0,0,2.1-4.721,23.047,23.047,0,0,0-.14,2.58v4.3a20.3,20.3,0,0,1-.12,2.461h2.321a19.852,19.852,0,0,1-.12-2.461V57.119c0-.88-0.04-1.98-0.08-2.64a11.634,11.634,0,0,0,1.22,2.5,6.289,6.289,0,0,1,.86-1.68v0.82A17.2,17.2,0,0,1,459.9,56h1.32a13.133,13.133,0,0,1-5.1,5.241,8.9,8.9,0,0,1,1.24,1.9,14.291,14.291,0,0,0,4.741-5.181c-0.06.78-.08,1.5-0.08,2.06V62.4a19.172,19.172,0,0,1-.12,2.32h2.3a18.27,18.27,0,0,1-.12-2.32V59.879c0-.58-0.02-1.3-0.08-1.98a14.161,14.161,0,0,0,2.14,3.061,12.839,12.839,0,0,0,2.24,2.1,5.248,5.248,0,0,1,1.4-2.08A13.086,13.086,0,0,1,464.8,56h2.24c0.86,0,1.5.04,2.161,0.1V53.838a15.9,15.9,0,0,1-2.141.12H464.1V51.438Zm-2.081,0v2.521H459.9a16.117,16.117,0,0,1-2.181-.12v1.14a13.5,13.5,0,0,1-1.88-3.161h0.5a7.154,7.154,0,0,1,.98.06c-0.1.16-.16,0.24-0.34,0.48a7.317,7.317,0,0,1,1.64,1.3,12.859,12.859,0,0,0,1.121-2.221h2.28Zm23.841-1.78,1.62-.92a17.734,17.734,0,0,0-1.98-2.261l-1.74.82a12.3,12.3,0,0,1,1.9,2.361H483.3c-0.02-.66-0.02-1.24-0.02-1.58a13.729,13.729,0,0,1,.08-1.62h-2.42a11.533,11.533,0,0,1,.12,1.56c0,0.6,0,.6.06,1.64H473.2a18.386,18.386,0,0,1-2.34-.12v2.24a21,21,0,0,1,2.34-.12h8a31.381,31.381,0,0,0,.48,4.761A14.529,14.529,0,0,0,483.9,62.44a4.136,4.136,0,0,0,2.66,1.94,1.721,1.721,0,0,0,1.38-.84,9.218,9.218,0,0,0,1.141-3.761,8.972,8.972,0,0,1-1.9-1.12c-0.26,2.08-.5,3.041-0.74,3.041a1.469,1.469,0,0,1-.46-0.36,6.511,6.511,0,0,1-1.2-1.98,22.825,22.825,0,0,1-1.4-7.7H486.3a17.566,17.566,0,0,1,2.341.12v-2.24a9.682,9.682,0,0,1-1.941.12h-0.84Zm-10.942,6.4V61a28.473,28.473,0,0,1-4.021.46l0.36,2.261c0.34-.06.56-0.1,0.74-0.14,2.681-.4,5.841-1.04,9.222-1.86v-2.04c-1.92.48-2.7,0.64-4.1,0.92V56.059h1.38a19.33,19.33,0,0,1,2,.1v-2.12a17.006,17.006,0,0,1-2.021.1h-4.841a17.771,17.771,0,0,1-2.06-.1v2.12a19.439,19.439,0,0,1,2.02-.1h1.321Zm19.34-1.78a16,16,0,0,1,1.72-.08h6.681a15.2,15.2,0,0,1,1.8.08v-1.56a21.287,21.287,0,0,0,3.421,1.82,8.909,8.909,0,0,1,1.1-2.241,21.124,21.124,0,0,1-5.141-2.7,12.137,12.137,0,0,1-3.381-3.321h-2.381a13.17,13.17,0,0,1-3.16,3.361,18.681,18.681,0,0,1-5.021,2.781,9.293,9.293,0,0,1,1.16,2.04,18.868,18.868,0,0,0,3.2-1.72v1.54Zm1.74-2.16c-0.36,0-.48,0-0.82-0.02a17.1,17.1,0,0,0,4.161-3.881,16.282,16.282,0,0,0,4.181,3.881c-0.381.02-.561,0.02-0.881,0.02H496Zm0.2,5.781a20.717,20.717,0,0,1-2.14,4c-1.021.06-1.621,0.08-1.761,0.08-0.28,0-.62-0.02-1.16-0.06l0.32,2.44a23.771,23.771,0,0,1,2.581-.28c0.8-.06,4.761-0.42,6.741-0.6,0.74-.08,1.94-0.22,3.6-0.44,0.34,0.48.54,0.76,1.2,1.74l1.92-1.26a40.865,40.865,0,0,0-4.621-5.341l-1.98.88c1.12,1.16,1.46,1.52,2.1,2.22-2.8.3-2.8,0.3-6.341,0.5a21.813,21.813,0,0,0,2.081-3.881h6.881a18.637,18.637,0,0,1,2.341.12V55.7a18.838,18.838,0,0,1-2.341.12H493.161a19.621,19.621,0,0,1-2.36-.12v2.321a18.736,18.736,0,0,1,2.36-.12H496.2Zm18.72-1.08a10.98,10.98,0,0,0,2.58,2.261,8.537,8.537,0,0,1,1.1-1.961,11.781,11.781,0,0,1-3.181-2.54,16.437,16.437,0,0,0,2-3.421,5.563,5.563,0,0,1,.44-0.84l-0.96-1.04a7.285,7.285,0,0,1-1.16.06h-0.82V47.7a8.528,8.528,0,0,1,.12-1.56h-2.421a9.187,9.187,0,0,1,.12,1.52v1.68h-1a12.211,12.211,0,0,1-1.58-.08v2.22a13.694,13.694,0,0,1,1.68-.08H515.1a11.864,11.864,0,0,1-2.181,3.081,13.8,13.8,0,0,1-3.44,2.7,7.75,7.75,0,0,1,1.02,2.08,13.474,13.474,0,0,0,2.22-1.7V62.58a11.971,11.971,0,0,1-.12,2.08h2.421a14.21,14.21,0,0,1-.1-2.04v-5.8Zm8.482-2.961h2.12c0.7,0,1.32.04,1.96,0.1V51.7a13.007,13.007,0,0,1-1.96.1H523.4V48.277a11.73,11.73,0,0,1,.14-2.081h-2.5a14.163,14.163,0,0,1,.14,2.081V51.8h-1.5a13.525,13.525,0,0,1-1.961-.1v2.261c0.641-.06,1.281-0.1,1.961-0.1h1.5V61.68H519a18.142,18.142,0,0,1-2.3-.12V63.98a16.144,16.144,0,0,1,2.261-.14H525.8a16.437,16.437,0,0,1,2.281.14V61.56a17.172,17.172,0,0,1-2.281.12h-2.4V53.858Z" transform="translate(-200 -38)"/>
  <path id="Kansai_Integrated_Systems" data-name="Kansai Integrated Systems" class="cls-2" d="M311.338,74.523l2.159-2.149c0.03-.03.15-0.15,0.33-0.34,0.13-.14.28-0.28,0.44-0.44,0.079-.08.079-0.08,0.259-0.25h-1.179a3.727,3.727,0,0,1-.69.83l-3.038,3.058V72.464a5.777,5.777,0,0,1,.08-1.119H308.77a6.327,6.327,0,0,1,.08,1.119v5.357a5.976,5.976,0,0,1-.08,1.119H309.7a5.909,5.909,0,0,1-.08-1.119V76.192l1.169-1.149,2.359,3.038a6.086,6.086,0,0,1,.59.859H314.9a8.618,8.618,0,0,1-.939-1.089Zm8.93,4.418h0.809a6.386,6.386,0,0,1-.08-1.1V75.032c0-1.079-.679-1.639-2-1.639a2.518,2.518,0,0,0-1.759.57,1.976,1.976,0,0,0-.559.889l0.779,0.17a1.4,1.4,0,0,1,.31-0.58,1.64,1.64,0,0,1,1.239-.43,1.031,1.031,0,0,1,1.26,1.029v0.58a8.158,8.158,0,0,0-2.3.26,1.685,1.685,0,0,0-1.429,1.639,1.527,1.527,0,0,0,1.769,1.519,2.948,2.948,0,0,0,1.039-.2,2.606,2.606,0,0,0,.92-0.61v0.71Zm0-2.079a1.089,1.089,0,0,1-.31.859,2.261,2.261,0,0,1-1.6.71,0.922,0.922,0,0,1-1.06-.9,1.062,1.062,0,0,1,.76-1.029,6.172,6.172,0,0,1,2.209-.29v0.65Zm4.341,2.079a8.055,8.055,0,0,1-.07-1.129V75.882a2.14,2.14,0,0,1,.46-0.989,1.74,1.74,0,0,1,1.429-.79,1.171,1.171,0,0,1,1.219,1.379v2.329a8.055,8.055,0,0,1-.07,1.129h0.9a6.775,6.775,0,0,1-.07-1.119V75.352a2.038,2.038,0,0,0-.28-1.149,1.8,1.8,0,0,0-1.6-.75,2.172,2.172,0,0,0-2.019,1.209,2.677,2.677,0,0,0,.03-0.43v-0.68H323.71a6.748,6.748,0,0,1,.08,1.129v3.128a6.372,6.372,0,0,1-.08,1.129h0.9Zm5.811-1.459a1.974,1.974,0,0,0,.32.79,2.344,2.344,0,0,0,1.979.78c1.369,0,2.218-.62,2.218-1.619a1.321,1.321,0,0,0-.479-1.039,3.779,3.779,0,0,0-1.59-.57,3.728,3.728,0,0,1-1.109-.34,0.614,0.614,0,0,1-.34-0.55,1.071,1.071,0,0,1,1.25-.9,1.367,1.367,0,0,1,1.039.38,0.909,0.909,0,0,1,.25.53l0.789-.13a1.612,1.612,0,0,0-.529-0.909,2.3,2.3,0,0,0-1.569-.48,2.192,2.192,0,0,0-1.56.52,1.339,1.339,0,0,0-.429.969,1.23,1.23,0,0,0,.539,1.049,3.814,3.814,0,0,0,1.48.52,3.217,3.217,0,0,1,1.179.36,0.675,0.675,0,0,1,.31.62c0,0.59-.55.959-1.42,0.959a1.692,1.692,0,0,1-1.159-.35,1.121,1.121,0,0,1-.35-0.73Zm9.848,1.459h0.809a6.386,6.386,0,0,1-.08-1.1V75.032c0-1.079-.679-1.639-2-1.639a2.518,2.518,0,0,0-1.759.57,1.976,1.976,0,0,0-.559.889l0.779,0.17a1.4,1.4,0,0,1,.31-0.58,1.64,1.64,0,0,1,1.239-.43,1.031,1.031,0,0,1,1.26,1.029v0.58a8.158,8.158,0,0,0-2.3.26,1.685,1.685,0,0,0-1.429,1.639,1.527,1.527,0,0,0,1.769,1.519,2.948,2.948,0,0,0,1.039-.2,2.606,2.606,0,0,0,.92-0.61v0.71Zm0-2.079a1.089,1.089,0,0,1-.31.859,2.261,2.261,0,0,1-1.6.71,0.922,0.922,0,0,1-1.06-.9,1.062,1.062,0,0,1,.76-1.029,6.172,6.172,0,0,1,2.209-.29v0.65Zm3.432-5.517v0.889h0.969V71.344H343.7Zm0.03,2.209a7.325,7.325,0,0,1,.07,1.129v3.128a8.667,8.667,0,0,1-.07,1.129h0.9a7.864,7.864,0,0,1-.07-1.129V74.682a7.155,7.155,0,0,1,.07-1.129h-0.9Zm7.04-2.209a5.977,5.977,0,0,1,.08,1.119v5.357a6.045,6.045,0,0,1-.08,1.119h0.949a6.186,6.186,0,0,1-.09-1.119V72.464a6.265,6.265,0,0,1,.09-1.119H350.77Zm3.839,7.6a8.055,8.055,0,0,1-.07-1.129V75.882a2.14,2.14,0,0,1,.46-0.989,1.74,1.74,0,0,1,1.429-.79,1.171,1.171,0,0,1,1.219,1.379v2.329a8.055,8.055,0,0,1-.07,1.129h0.9a6.775,6.775,0,0,1-.07-1.119V75.352a2.038,2.038,0,0,0-.28-1.149,1.8,1.8,0,0,0-1.6-.75,2.172,2.172,0,0,0-2.019,1.209,2.677,2.677,0,0,0,.03-0.43v-0.68H353.71a6.748,6.748,0,0,1,.08,1.129v3.128a6.372,6.372,0,0,1-.08,1.129h0.9Zm6.73-6.876a7.579,7.579,0,0,1,.07,1.109v0.38h-0.4a4.528,4.528,0,0,1-.9-0.06v0.76a6.687,6.687,0,0,1,.9-0.06h0.4v3.578a1.268,1.268,0,0,0,.28.959,1.37,1.37,0,0,0,.98.31,2.691,2.691,0,0,0,1.129-.23l-0.22-.7a1.386,1.386,0,0,1-.79.26,0.676,0.676,0,0,1-.489-0.17,0.721,0.721,0,0,1-.13-0.53V74.193h0.48a6,6,0,0,1,1.019.06v-0.76a6.14,6.14,0,0,1-1.019.06h-0.48v-0.38a7.221,7.221,0,0,1,.07-1.109h-0.9Zm9.088,4.3c-0.02-.27-0.06-0.66-0.07-0.77a2.363,2.363,0,0,0-2.419-2.169c-1.5,0-2.478,1.119-2.478,2.828a2.519,2.519,0,0,0,2.558,2.829,2.494,2.494,0,0,0,1.809-.7,2.388,2.388,0,0,0,.55-0.83l-0.7-.28a1.632,1.632,0,0,1-1.649,1.169,1.673,1.673,0,0,1-1.409-.68,2.264,2.264,0,0,1-.4-1.4h4.208Zm-4.178-.63a2.091,2.091,0,0,1,.25-0.81,1.565,1.565,0,0,1,1.419-.87,1.622,1.622,0,0,1,1.18.45,1.819,1.819,0,0,1,.529,1.229h-3.378Zm6.441,4.358a2.735,2.735,0,0,0,2.268,1,2.694,2.694,0,0,0,2.079-.76,3.022,3.022,0,0,0,.58-2.079V74.672a7.629,7.629,0,0,1,.07-1.119h-0.8v0.57c0,0.13.01,0.21,0.02,0.38a2.065,2.065,0,0,0-1.919-1.049,2.482,2.482,0,0,0-2.528,2.778,2.424,2.424,0,0,0,2.468,2.719,2.322,2.322,0,0,0,1.55-.52,1.827,1.827,0,0,0,.429-0.55,5.539,5.539,0,0,1-.18,1.479,1.682,1.682,0,0,1-1.739,1.1,1.912,1.912,0,0,1-1.339-.47,1.406,1.406,0,0,1-.32-0.35Zm0.549-3.858c0-1.329.68-2.149,1.789-2.149a1.837,1.837,0,0,1,1.839,2.069,1.934,1.934,0,0,1-1.9,2.169C373.9,78.32,373.239,77.531,373.239,76.232Zm9.929-2.678a4.592,4.592,0,0,0-.89-0.09,1.991,1.991,0,0,0-1.2.35,1.753,1.753,0,0,0-.55.61,2.9,2.9,0,0,0,.01-0.3v-0.57H379.71a7.239,7.239,0,0,1,.07,1.129v3.128a9.114,9.114,0,0,1-.07,1.129h0.9a7.815,7.815,0,0,1-.07-1.119V75.782a1.645,1.645,0,0,1,.37-1,1.475,1.475,0,0,1,1.229-.61,2.371,2.371,0,0,1,.81.15Zm5.1,5.387h0.809a6.386,6.386,0,0,1-.08-1.1V75.032c0-1.079-.679-1.639-2-1.639a2.518,2.518,0,0,0-1.759.57,1.976,1.976,0,0,0-.559.889l0.779,0.17a1.4,1.4,0,0,1,.31-0.58,1.64,1.64,0,0,1,1.239-.43,1.031,1.031,0,0,1,1.26,1.029v0.58a8.158,8.158,0,0,0-2.3.26,1.685,1.685,0,0,0-1.429,1.639,1.527,1.527,0,0,0,1.769,1.519,2.948,2.948,0,0,0,1.039-.2,2.606,2.606,0,0,0,.92-0.61v0.71Zm0-2.079a1.089,1.089,0,0,1-.31.859,2.261,2.261,0,0,1-1.6.71,0.922,0.922,0,0,1-1.06-.9,1.062,1.062,0,0,1,.76-1.029,6.172,6.172,0,0,1,2.209-.29v0.65Zm4.071-4.8a7.579,7.579,0,0,1,.07,1.109v0.38h-0.4a4.528,4.528,0,0,1-.9-0.06v0.76a6.687,6.687,0,0,1,.9-0.06h0.4v3.578a1.268,1.268,0,0,0,.28.959,1.37,1.37,0,0,0,.98.31,2.691,2.691,0,0,0,1.129-.23l-0.22-.7a1.386,1.386,0,0,1-.79.26,0.676,0.676,0,0,1-.489-0.17,0.721,0.721,0,0,1-.13-0.53V74.193h0.48a6,6,0,0,1,1.019.06v-0.76a6.14,6.14,0,0,1-1.019.06h-0.48v-0.38a7.221,7.221,0,0,1,.07-1.109h-0.9Zm9.088,4.3c-0.02-.27-0.06-0.66-0.07-0.77a2.363,2.363,0,0,0-2.419-2.169c-1.5,0-2.478,1.119-2.478,2.828a2.519,2.519,0,0,0,2.558,2.829,2.494,2.494,0,0,0,1.809-.7,2.388,2.388,0,0,0,.55-0.83l-0.7-.28a1.632,1.632,0,0,1-1.649,1.169,1.673,1.673,0,0,1-1.409-.68,2.264,2.264,0,0,1-.4-1.4h4.208Zm-4.178-.63a2.091,2.091,0,0,1,.25-0.81,1.565,1.565,0,0,1,1.419-.87,1.622,1.622,0,0,1,1.18.45,1.819,1.819,0,0,1,.529,1.229h-3.378Zm10.688,3.208h0.8a7.783,7.783,0,0,1-.07-1.149V72.474a8.154,8.154,0,0,1,.07-1.129h-0.88a7.822,7.822,0,0,1,.07,1.139v1.339a3.024,3.024,0,0,0,.03.53l0.01,0.15a2.293,2.293,0,0,0-2.049-1.059c-1.5,0-2.458,1.089-2.458,2.8,0,1.739.939,2.8,2.478,2.8a2.228,2.228,0,0,0,2.029-1.079,4.419,4.419,0,0,0-.03.49v0.49ZM406,74.093a1.93,1.93,0,0,1,1.36.53,2.214,2.214,0,0,1,.559,1.589A1.922,1.922,0,0,1,406,78.38a1.652,1.652,0,0,1-1.339-.6,2.612,2.612,0,0,1-.41-1.559C404.249,74.892,404.909,74.093,406,74.093Zm14-.9a2.308,2.308,0,0,0-.44-1.059,2.634,2.634,0,0,0-2.209-.919c-1.549,0-2.558.809-2.558,2.069a1.705,1.705,0,0,0,.929,1.579,4.539,4.539,0,0,0,1.359.46,4.9,4.9,0,0,1,1.649.49,1.141,1.141,0,0,1,.58,1.069c0,0.929-.72,1.489-1.909,1.489a2.024,2.024,0,0,1-1.669-.69,1.556,1.556,0,0,1-.31-0.989l-0.869.11a2.584,2.584,0,0,0,.469,1.319,2.855,2.855,0,0,0,2.409.949c1.719,0,2.689-.8,2.689-2.209,0-1.159-.64-1.769-2.239-2.109a7.315,7.315,0,0,1-1.429-.36,1.177,1.177,0,0,1-.87-1.129,1.515,1.515,0,0,1,1.749-1.359,1.852,1.852,0,0,1,1.479.58,1.632,1.632,0,0,1,.35.83Zm4.482,5.587-0.46,1.1a0.774,0.774,0,0,1-.74.55,1.309,1.309,0,0,1-.609-0.17l-0.21.74a3.843,3.843,0,0,0,.819.11,1.363,1.363,0,0,0,1.41-.929l2.238-5.457c0.26-.63.43-1.019,0.49-1.169h-0.929a4.722,4.722,0,0,1-.33,1.059l-1.29,3.358-1.449-3.358a5.535,5.535,0,0,1-.34-1.059H422.1c0.1,0.18.1,0.18,0.55,1.169Zm4.941-1.3a1.974,1.974,0,0,0,.32.79,2.344,2.344,0,0,0,1.979.78c1.369,0,2.218-.62,2.218-1.619a1.321,1.321,0,0,0-.479-1.039,3.779,3.779,0,0,0-1.59-.57,3.728,3.728,0,0,1-1.109-.34,0.614,0.614,0,0,1-.34-0.55,1.071,1.071,0,0,1,1.25-.9,1.367,1.367,0,0,1,1.039.38,0.909,0.909,0,0,1,.25.53l0.789-.13a1.612,1.612,0,0,0-.529-0.909,2.3,2.3,0,0,0-1.569-.48,2.192,2.192,0,0,0-1.56.52,1.339,1.339,0,0,0-.429.969,1.23,1.23,0,0,0,.539,1.049,3.814,3.814,0,0,0,1.48.52,3.217,3.217,0,0,1,1.179.36,0.675,0.675,0,0,1,.31.62c0,0.59-.55.959-1.42,0.959a1.692,1.692,0,0,1-1.159-.35,1.121,1.121,0,0,1-.35-0.73Zm6.919-5.417a7.579,7.579,0,0,1,.07,1.109v0.38h-0.4a4.528,4.528,0,0,1-.9-0.06v0.76a6.687,6.687,0,0,1,.9-0.06h0.4v3.578a1.268,1.268,0,0,0,.28.959,1.37,1.37,0,0,0,.98.31,2.691,2.691,0,0,0,1.129-.23l-0.22-.7a1.386,1.386,0,0,1-.79.26,0.676,0.676,0,0,1-.489-0.17,0.721,0.721,0,0,1-.13-0.53V74.193h0.48a6,6,0,0,1,1.019.06v-0.76a6.14,6.14,0,0,1-1.019.06h-0.48v-0.38a7.221,7.221,0,0,1,.07-1.109h-0.9Zm9.088,4.3c-0.02-.27-0.06-0.66-0.07-0.77a2.363,2.363,0,0,0-2.419-2.169c-1.5,0-2.478,1.119-2.478,2.828a2.519,2.519,0,0,0,2.558,2.829,2.494,2.494,0,0,0,1.809-.7,2.388,2.388,0,0,0,.55-0.83l-0.7-.28a1.632,1.632,0,0,1-1.649,1.169,1.673,1.673,0,0,1-1.409-.68,2.264,2.264,0,0,1-.4-1.4h4.208Zm-4.178-.63a2.091,2.091,0,0,1,.25-0.81,1.565,1.565,0,0,1,1.419-.87,1.622,1.622,0,0,1,1.18.45,1.819,1.819,0,0,1,.529,1.229h-3.378Zm7.34,3.208a7.958,7.958,0,0,1-.07-1.129V75.852a2.227,2.227,0,0,1,.33-1,1.565,1.565,0,0,1,1.309-.76,1.131,1.131,0,0,1,1.12,1.359v2.359a7.154,7.154,0,0,1-.07,1.129h0.9a6.936,6.936,0,0,1-.07-1.119V75.852a2.149,2.149,0,0,1,.33-1.029,1.5,1.5,0,0,1,1.259-.73c0.8,0,1.15.41,1.15,1.359v2.359a6.064,6.064,0,0,1-.07,1.129h0.9a7.019,7.019,0,0,1-.07-1.119V75.352a2.033,2.033,0,0,0-.34-1.3,1.725,1.725,0,0,0-1.459-.61,1.964,1.964,0,0,0-1.849,1.089,1.312,1.312,0,0,0-.31-0.58,1.612,1.612,0,0,0-1.289-.51,1.941,1.941,0,0,0-1.409.52,2.057,2.057,0,0,0-.38.5c0.01-.19.02-0.31,0.02-0.36v-0.55H447.71a7.239,7.239,0,0,1,.07,1.129v3.128a7.5,7.5,0,0,1-.07,1.129h0.879Zm8.831-1.459a1.974,1.974,0,0,0,.32.79,2.344,2.344,0,0,0,1.979.78c1.369,0,2.218-.62,2.218-1.619a1.321,1.321,0,0,0-.479-1.039,3.779,3.779,0,0,0-1.59-.57,3.728,3.728,0,0,1-1.109-.34,0.614,0.614,0,0,1-.34-0.55,1.071,1.071,0,0,1,1.25-.9,1.367,1.367,0,0,1,1.039.38,0.909,0.909,0,0,1,.25.53l0.789-.13a1.612,1.612,0,0,0-.529-0.909,2.3,2.3,0,0,0-1.569-.48,2.192,2.192,0,0,0-1.56.52,1.339,1.339,0,0,0-.429.969,1.23,1.23,0,0,0,.539,1.049,3.814,3.814,0,0,0,1.48.52,3.217,3.217,0,0,1,1.179.36,0.675,0.675,0,0,1,.31.62c0,0.59-.55.959-1.42,0.959a1.692,1.692,0,0,1-1.159-.35,1.121,1.121,0,0,1-.35-0.73Z" transform="translate(-200 -38)"/>
  <path id="パス" class="cls-3" d="M262.218,60.079h25.14a19.177,19.177,0,0,0-6.094-2.414L275.7,56.354c-1.095-.261-2.02-0.5-2.809-0.71H259.44A9.483,9.483,0,0,0,262.218,60.079Z" transform="translate(-200 -38)"/>
  <path id="パス-2" data-name="パス" class="cls-3" d="M283.043,52.722l0.159,1.3h8.009V52.543A19.2,19.2,0,0,0,291,49.73h-8.672A12.04,12.04,0,0,1,283.043,52.722Z" transform="translate(-200 -38)"/>
  <path id="パス-3" data-name="パス" class="cls-3" d="M268.08,48.251a6.266,6.266,0,0,1,.724-0.861c1.08-1.083,3.006-1.631,5.724-1.631,3.3,0,5.642.846,6.976,2.493h9.2a11.45,11.45,0,0,0-4.51-6.866A19.473,19.473,0,0,0,274.682,38c-4.918,0-8.807,1.33-11.56,3.953a13.025,13.025,0,0,0-3.7,6.3h8.658Z" transform="translate(-200 -38)"/>
  <path id="パス-4" data-name="パス" class="cls-3" d="M264.328,61.558a29.644,29.644,0,0,0,7.005,2.364l5.38,1.256a18.882,18.882,0,0,1,5.926,2.2c0.941,0.66,1.4,1.826,1.4,3.563,0,2.34-1.212,3.867-3.811,4.808a14.651,14.651,0,0,1-4.983.8c-3.984,0-6.65-1.114-8.142-3.4a10.132,10.132,0,0,1-1.352-4.948l-0.077-1.4h-8.081l-0.019,1.46c-0.062,4.846,1.491,8.759,4.611,11.627,3.082,2.855,7.35,4.3,12.685,4.3a22.772,22.772,0,0,0,12-3.146c3.679-2.231,5.545-5.935,5.545-11.007a11.544,11.544,0,0,0-3.2-8.49H264.328Z" transform="translate(-200 -38)"/>
  <path id="パス-5" data-name="パス" class="cls-3" d="M267.175,51.148a5.087,5.087,0,0,1,.219-1.418h-8.267a16.082,16.082,0,0,0-.186,2.367,13.453,13.453,0,0,0,.172,2.069h9.605A3.267,3.267,0,0,1,267.175,51.148Z" transform="translate(-200 -38)"/>
  <path id="パス-6" data-name="パス" class="cls-3" d="M251.391,48.251V39.032h-8.57v9.219h8.57Z" transform="translate(-200 -38)"/>
  <path id="パス-7" data-name="パス" class="cls-3" d="M242.821,49.73v4.436h8.57V49.73h-8.57Z" transform="translate(-200 -38)"/>
  <path id="パス-8" data-name="パス" class="cls-3" d="M251.391,60.079V55.644h-8.57v4.435h8.57Z" transform="translate(-200 -38)"/>
  <path id="パス-9" data-name="パス" class="cls-3" d="M242.821,61.558V83h8.57V61.558h-8.57Z" transform="translate(-200 -38)"/>
  <path id="パス-10" data-name="パス" class="cls-3" d="M221.694,60.079l-2.075-2.838,1.692-1.6H209.83l-1.457,1.425V55.644H200v4.435h21.694Z" transform="translate(-200 -38)"/>
  <path id="パス-11" data-name="パス" class="cls-3" d="M200,54.166h8.373V49.73H200v4.436Z" transform="translate(-200 -38)"/>
  <path id="パス-12" data-name="パス" class="cls-3" d="M211.341,54.166h11.535l4.695-4.436h-11.7Z" transform="translate(-200 -38)"/>
  <path id="パス-13" data-name="パス" class="cls-3" d="M229.137,48.251l9.759-9.219H226.809l-9.423,9.219h11.751Z" transform="translate(-200 -38)"/>
  <path id="パス-14" data-name="パス" class="cls-3" d="M200,61.558V83h8.373V67.865l4.987-4.712L227.509,83h10.944L222.776,61.558H200Z" transform="translate(-200 -38)"/>
  <path id="パス-15" data-name="パス" class="cls-3" d="M208.373,48.251V39.032H200v9.219h8.373Z" transform="translate(-200 -38)"/>
  <rect id="長方形" class="cls-4" y="10" width="94" height="2"/>
  <rect id="長方形-2" data-name="長方形" class="cls-4" y="16" width="94" height="2"/>
  <rect id="長方形-3" data-name="長方形" class="cls-4" y="22" width="94" height="2"/>
</svg>
