<!-- Generator: Adobe Illustrator 21.1.0, SVG Export Plug-In  -->
<svg version="1.1"
	 xmlns="http://www.w3.org/2000/svg" xmlns:xlink="http://www.w3.org/1999/xlink" xmlns:a="http://ns.adobe.com/AdobeSVGViewerExtensions/3.0/"
	 x="0px" y="0px" width="414px" height="87.7px" viewBox="0 0 414 87.7" style="enable-background:new 0 0 414 87.7;"
	 xml:space="preserve">
<style type="text/css">
	.st0{fill:#000040;}
	.st1{fill:#FFFFFF;}
	.st2{fill:#EDEDED;}
</style>
<defs>
</defs>
<polygon class="st0" points="4,87.7 4,29.3 25.7,7.6 414,7.6 414,66 392.3,87.7 "/>
<polygon class="st1" points="2.5,84 2.5,25.6 24.2,3.9 412.5,3.9 412.5,62.3 390.8,84 "/>
<path class="st2" d="M2,82.1h2V24.5L24.5,4H410v55.5L389.5,80H2l0,0V82.1h2H2v2l0,0h388.3c0.5,0,1-0.2,1.4-0.6l21.7-21.7
	c0.4-0.4,0.6-0.9,0.6-1.4V2c0-0.5-0.2-1-0.6-1.4C413.1,0.2,412.5,0,412,0H23.7c-0.5,0-1,0.2-1.4,0.6L0.6,22.3
	C0.2,22.7,0,23.2,0,23.7v58.4c0,0.5,0.2,1,0.6,1.4C1,83.9,1.5,84.1,2,84.1V82.1z"/>
</svg>
