<svg id="icon_data.svg" xmlns="http://www.w3.org/2000/svg" width="26" height="26" viewBox="0 0 26 26">
  <defs>
    <style>
      .cls-1 {
        fill: #0cc1fe;
      }

      .cls-1, .cls-2 {
        fill-rule: evenodd;
      }

      .cls-2 {
        fill: #fff;
      }
    </style>
  </defs>
  <path id="b" class="cls-1" d="M1126,5600a13,13,0,1,1,13,13A13,13,0,0,1,1126,5600Z" transform="translate(-1126 -5587)"/>
  <path id="i" class="cls-2" d="M1139,5593c-3.6,0-6,1.12-6,2.98v8.03c0,1.87,2.4,2.99,6,2.99s6-1.12,6-2.99v-8.03C1145,5594.12,1142.6,5593,1139,5593Zm4.59,4.99v2c0,0.73-1.74,1.75-4.59,1.75s-4.59-1.02-4.59-1.75v-2a9.89,9.89,0,0,0,4.59.98A9.119,9.119,0,0,0,1143.59,5597.99Zm-9.18,4a9.89,9.89,0,0,0,4.59.98,11.776,11.776,0,0,0,4.59-.98v2.02c0,0.74-1.74,1.76-4.59,1.76s-4.59-1.02-4.59-1.76v-2.02Zm4.59-4.25c-2.85,0-4.59-1.02-4.59-1.76s1.74-1.75,4.59-1.75,4.59,1.02,4.59,1.75S1141.85,5597.74,1139,5597.74Z" transform="translate(-1126 -5587)"/>
</svg>
