<svg xmlns="http://www.w3.org/2000/svg" width="17.656" height="20.91" viewBox="0 0 17.656 20.91">
  <defs>
    <style>
      .cls-1 {
        fill: #fff;
        fill-rule: evenodd;
      }
    </style>
  </defs>
  <path id="icon_tel_w.svg" class="cls-1" d="M61.246,1841.9a15.825,15.825,0,0,0,1.641,1.93,12.143,12.143,0,0,0,1.279,1.1,4.314,4.314,0,0,0,.954.53l0.268,0.09a1,1,0,0,0,.577.02,1.088,1.088,0,0,0,.508-0.21l1.413-1.09a0.517,0.517,0,0,1,.383-0.08,0.787,0.787,0,0,1,.173.04,0.483,0.483,0,0,0,.108.07l3.82,3.04a0.381,0.381,0,0,1,.15.2,0.2,0.2,0,0,1-.1.15l-3.349,2.51-0.036.03a0.853,0.853,0,0,1-.294.15,1.919,1.919,0,0,1-.381.07,0.431,0.431,0,0,0-.12-0.01,2.1,2.1,0,0,1-.209-0.02,9.157,9.157,0,0,1-3.235-1.26,18.811,18.811,0,0,1-2.724-2.03,22.614,22.614,0,0,1-3.127-3.49,23.84,23.84,0,0,1-2.085-3.17,20.434,20.434,0,0,1-1.227-2.69,13.352,13.352,0,0,1-.594-2.14,10.775,10.775,0,0,1-.176-1.59,4.611,4.611,0,0,1,.048-0.93c0.037-.19.063-0.33,0.078-0.41a1.666,1.666,0,0,1,.17-0.34,1.149,1.149,0,0,1,.223-0.24,0.06,0.06,0,0,0,.034-0.02l3.352-2.53a0.154,0.154,0,0,1,.15-0.05,0.9,0.9,0,0,1,.136.19l1.735,4.81a0.248,0.248,0,0,1-.005.2,0.6,0.6,0,0,1-.194.28l-1.235.93a1.26,1.26,0,0,0-.341.42,1.458,1.458,0,0,0-.136.42,0.875,0.875,0,0,0-.007.16,4.729,4.729,0,0,0,.293,1.34,10.425,10.425,0,0,0,.692,1.54A16.071,16.071,0,0,0,61.246,1841.9Z" transform="translate(-54.875 -1829.53)"/>
</svg>
