<!-- Generator: Adobe Illustrator 21.1.0, SVG Export Plug-In  -->
<svg version="1.1"
   xmlns="http://www.w3.org/2000/svg" xmlns:xlink="http://www.w3.org/1999/xlink" xmlns:a="http://ns.adobe.com/AdobeSVGViewerExtensions/3.0/"
   x="0px" y="0px" width="261.2px" height="31.3px" viewBox="0 0 261.2 31.3" style="enable-background:new 0 0 261.2 31.3;"
   xml:space="preserve">
<style type="text/css">
  .st0{fill:#FFFFFF;}
</style>
<defs>
</defs>
<path id="関西総合システム株式会社_1_" class="st0" d="M80.8,11.9c0.4,0,0.9,0,1.3,0.1v-1.5c-0.4,0.1-0.9,0.1-1.3,0.1
  h-2.3c0-0.3,0-0.6,0.1-1h2.2c0.4,0,0.8,0,1.1,0.1V8.3c-0.4,0-0.8,0.1-1.2,0.1h-0.5c0.2-0.4,0.5-0.8,0.7-1.2l-1.5-0.3
  c-0.2,0.5-0.4,1-0.7,1.5h-1.3c-0.3-0.5-0.6-1-0.9-1.5l-1.5,0.4c0.3,0.3,0.6,0.7,0.8,1.1h-0.5c-0.4,0-0.7,0-1.1-0.1v1.4
  c0.4-0.1,0.8-0.1,1.2-0.1H77c0,0.3,0,0.7,0,1h-2c-0.4,0-0.9,0-1.3-0.1v1.5c0.5-0.1,0.9-0.1,1.4-0.1h1.6c-0.3,0.6-0.7,1-1.2,1.4
  c-0.6,0.4-1.3,0.6-2.1,0.8c0.4,0.4,0.7,0.9,0.9,1.4c1.5-0.3,2.8-1.3,3.6-2.6c0.8,1,1.9,1.7,3.1,2.2c0.1-0.2,0.1-0.3,0.2-0.5
  c0.2,0.4,0.2,0.9,0.3,1.3c0.4,0,0.6,0,0.9,0c1.9,0,2.3-0.3,2.3-1.8V3.3c0-0.6,0-1.2,0.1-1.8c-0.5,0.1-1.1,0.1-1.6,0.1H80
  c-0.5,0-1.1,0-1.6-0.1c0,0.5,0,0.9,0,1.5v2.3c0,0.7,0,1,0,1.4c0.4,0,0.9-0.1,1.5-0.1H83v7.1c0,0.4-0.1,0.4-0.5,0.4
  c-0.4,0-0.8,0-1.2-0.1c0.1-0.2,0.2-0.5,0.4-0.7c-1.1-0.2-2.1-0.7-2.8-1.5L80.8,11.9L80.8,11.9z M80,2.8h3v0.8h-3V2.8z M80,4.7h3v0.8
  h-3V4.7z M72.9,6.7h2.9c0.6,0,1.1,0,1.5,0.1c0-0.4,0-0.7,0-1.4V3c0-0.6,0-1,0-1.5c-0.5,0.1-1.1,0.1-1.6,0.1h-2.9
  c-0.5,0-1.1,0-1.6-0.1c0.1,0.6,0.1,1.2,0.1,1.8v10.6c0,0.7,0,1.3-0.1,2H73c-0.1-0.6-0.1-1.3-0.1-1.9L72.9,6.7L72.9,6.7z M72.9,2.8
  h2.8v0.8h-2.8V2.8z M72.9,4.7h2.8v0.8h-2.8V4.7z M91.5,3.6v1.8h-2.2c-0.6,0-1.2,0-1.9-0.1c0.1,0.7,0.1,1.2,0.1,1.9v6.5
  c0,0.7,0,1.4-0.1,2.1h1.8v-0.9h9.4v0.9h1.8c-0.1-0.7-0.1-1.4-0.1-2.1V7.2c0-0.6,0-1.3,0.1-1.9c-0.6,0.1-1.2,0.1-1.9,0.1h-2.4V3.6
  h3.2c0.6,0,1.2,0,1.8,0.1V1.9C100.5,1.9,99.9,2,99.3,2H88.5c-0.6,0-1.3,0-1.9-0.1v1.8c0.6-0.1,1.2-0.1,1.8-0.1H91.5z M93.1,3.6h1.4
  v1.8h-1.4V3.6z M91.4,7c0,0.9-0.2,1.8-0.7,2.6c-0.4,0.5-0.9,0.9-1.5,1.2V7L91.4,7L91.4,7z M94.5,7v2.8c0,1.1,0.4,1.4,1.9,1.4
  c1.2,0,1.7-0.2,1.9-0.8c0.1-0.4,0.2-0.8,0.2-1.2c0-0.1,0-0.2,0-0.3v4.2h-9.4V11c0.5,0.3,0.9,0.7,1.2,1.2c0.8-0.5,1.5-1.2,1.9-2
  c0.5-1,0.7-2,0.7-3.1L94.5,7L94.5,7z M96.1,7h2.5v1.7c-0.5,0-0.9-0.2-1.3-0.4c0,1.2,0,1.3-0.6,1.3c-0.5,0-0.6,0-0.6-0.3L96.1,7
  L96.1,7z M102.7,9.6c0.7-0.1,1.5-0.2,2.2-0.2v4.9c0,0.6,0,1.1-0.1,1.7l1.7,0c-0.1-0.6-0.1-1.1-0.1-1.7V9.3c0.4,0,0.6-0.1,0.6-0.1
  c0.2,0,0.3-0.1,0.5-0.1c0.1,0.3,0.1,0.4,0.2,0.7l1.2-0.5c-0.3-1.1-0.7-2.1-1.2-3.1l-1.1,0.5c0.2,0.3,0.3,0.7,0.5,1.1
  c-0.7,0.1-0.9,0.1-1.7,0.1c0.8-1,1.5-2.1,2.2-3.2c0.5,0.3,0.8,0.8,1.1,1.3c1.3-1,2.3-2.2,3-3.6c0.1-0.1,0.1-0.1,0.2-0.3
  c0,0,0-0.1,0.1-0.1l-1.6-0.8c-0.2,0.5-0.5,1-0.8,1.5c-0.5,0.8-1.2,1.4-2,1.9c0-0.1,0.1-0.1,0.1-0.2c0-0.1,0.1-0.1,0.1-0.2
  c0.3-0.5,0.3-0.5,0.4-0.6l-1.5-0.8c-0.4,1-0.9,1.9-1.5,2.8c-0.2-0.2-0.3-0.4-0.6-0.8c0.6-0.8,1.1-1.7,1.5-2.6
  c0.1-0.2,0.2-0.4,0.3-0.6L105.1,1c-0.3,0.9-0.7,1.9-1.2,2.7c-0.2-0.2-0.3-0.3-0.5-0.6l-0.8,1.3c0.7,0.8,1.4,1.6,2,2.5
  c-0.3,0.4-0.5,0.7-0.8,1.1c-0.1,0-0.2,0-0.3,0c-0.3,0-0.6,0-0.9-0.1L102.7,9.6z M116.9,8.4c-0.7-1.3-1.5-2.6-2.5-3.8l-1.3,0.7
  c0.5,0.7,0.7,0.9,1,1.4c-0.8,0.1-1,0.1-2.6,0.2c0.3-0.4,0.4-0.7,1-1.8l0.7-1.3l-1.7-0.5c-0.2,0.8-0.5,1.5-0.9,2.2
  c-0.3,0.5-0.5,1-0.8,1.5c-0.3,0-0.4,0-0.5,0c-0.2,0-0.4,0-0.5,0l0.2,1.7c0.3,0,0.7-0.1,2.6-0.3l-1,0.8c1,0.5,1.8,1.2,2.5,2.1
  l1.1-1.2c-0.7-0.7-1.5-1.2-2.3-1.7c1.7-0.2,1.8-0.2,3-0.4c0.2,0.4,0.3,0.6,0.6,1.3L116.9,8.4z M108.3,13.1c-0.2,0.4-0.3,0.8-0.6,1.1
  l1.5,0.9c0.5-1.3,0.9-2.7,1-4.2l-1.4-0.3c0,0.7-0.1,1.4-0.3,2.1c-0.1-0.9-0.2-1.8-0.5-2.7l-1.2,0.3c0.3,1,0.4,2.1,0.4,3.1
  L108.3,13.1z M103.2,10.1c0,1.5-0.2,3-0.7,4.4l1.4,0.6c0.4-1.6,0.6-3.2,0.7-4.8L103.2,10.1z M112.9,2c0.1,0.1,0.2,0.3,0.3,0.4
  c0.9,1.4,2,2.5,3.4,3.4c0.2-0.6,0.5-1.1,0.9-1.5c-0.6-0.3-1.2-0.7-1.7-1.2c-0.6-0.5-1.1-1.2-1.5-1.8L112.9,2z M110.4,10.4
  c0.1,0.4,0.1,0.8,0.1,1.2v2.9c-0.1,0.3,0.1,0.6,0.3,0.9c0.5,0.2,1.1,0.3,1.6,0.3c2.3,0,2.6-0.2,2.8-2.8c-0.5-0.1-1-0.2-1.4-0.5
  c0,1.2-0.1,1.5-0.2,1.7c-0.2,0.1-0.5,0.2-0.7,0.2c-0.7,0-0.8,0-0.8-0.4v-2.4c0-0.3,0-0.7,0.1-1L110.4,10.4L110.4,10.4z M114.5,10.7
  c0.7,1.3,1.1,2.7,1.4,4.2l1.6-0.8c-0.4-1.4-0.9-2.7-1.6-4L114.5,10.7z M121.8,7.6c0.5-0.1,0.9-0.1,1.4-0.1h5.5c0.5,0,1,0,1.4,0.1
  V6.4c0.8,0.5,1.7,1,2.6,1.4c0.2-0.6,0.5-1.2,0.9-1.8c-1.5-0.5-2.8-1.2-4.1-2.2c-1.1-0.7-2-1.6-2.7-2.7h-1.9c-0.7,1-1.5,1.9-2.5,2.7
  c-1.2,1-2.6,1.7-4.1,2.3c0.4,0.5,0.7,1,0.9,1.6c0.9-0.4,1.7-0.8,2.6-1.4L121.8,7.6L121.8,7.6z M123.2,5.8h-0.4
  C124,5,125,4,125.9,2.7c0.9,1.2,2,2.3,3.3,3.1H123.2L123.2,5.8z M122.4,15.8V15h7v0.8h1.9c-0.1-0.6-0.1-1.1-0.1-1.7v-3.8
  c0-0.5,0-1.1,0.1-1.6c-0.5,0-0.9,0.1-1.4,0.1h-8c-0.5,0-0.9,0-1.4-0.1c0.1,0.5,0.1,1.1,0.1,1.6v3.7c0,0.6,0,1.1-0.1,1.7H122.4z
   M122.4,10.4h7v3h-7V10.4z M136.9,3.5c1.5,0.6,2.9,1.3,4.3,2.2l1-1.8c-1.4-0.8-2.8-1.5-4.3-2.1L136.9,3.5z M135.7,7.4
  c1.5,0.6,3,1.4,4.3,2.4l1-1.8c-1.3-0.9-2.8-1.6-4.2-2.2L135.7,7.4z M136.6,15.1c0.3-0.1,0.5-0.1,1.1-0.2c3.9-0.8,6.7-2.2,8.7-4.6
  c1-1.2,1.8-2.6,2.4-4.1c-0.6-0.4-1.2-0.9-1.7-1.4c-0.4,1.3-1,2.5-1.8,3.5c-1.1,1.6-2.8,2.8-4.6,3.5c-1.5,0.6-3,1-4.6,1.1L136.6,15.1
  z M164.8,13.5c-1.9-1.9-1.9-1.9-2.3-2.2c-0.9-0.8-1.9-1.6-3-2.3c1-1.4,1.8-2.9,2.5-4.4c0.1-0.3,0.3-0.6,0.5-0.9l-1.1-1.1
  c-0.5,0.2-0.9,0.2-1.4,0.2l-5.6,0.1H154c-0.5,0-0.9,0-1.4-0.1l0.1,2.1c0.6-0.1,1.2-0.1,1.8-0.1c5-0.1,5-0.1,5.3-0.1L159.6,5
  c-1.1,2.6-3,4.9-5.4,6.5c-1,0.7-2.1,1.3-3.2,1.8c0.5,0.5,1,1.1,1.3,1.8c2.3-1.1,4.4-2.7,6.1-4.6c1.8,1.4,3.5,3,4.9,4.8L164.8,13.5z
   M178.6,8.1c0.7,0,1.4,0,2,0.1V6.2c-0.7,0.1-1.4,0.1-2.1,0.1h-9.4c-0.7,0-1.4,0-2.1-0.1v1.9c0.7-0.1,1.4-0.1,2-0.1h3.9
  c0,1-0.2,2.1-0.7,3c-0.8,1.4-2.2,2.3-3.8,2.7c0.6,0.5,1,1.1,1.3,1.8c1.7-0.5,3.2-1.6,4.2-3.1c0.7-1.3,1.1-2.8,1.1-4.3H178.6
  L178.6,8.1z M168.8,4.2c0.7-0.1,1.4-0.1,2-0.1h6.2c0.7,0,1.4,0,2,0.1V2.2c-0.7,0.1-1.4,0.1-2.1,0.1h-6.2c-0.7,0-1.4,0-2.1-0.1
  L168.8,4.2L168.8,4.2z M188.1,1.6c-0.3,1.5-0.6,3-1.2,4.4c-0.7,2.2-1.4,4.3-2.3,6.4c-0.7,0-1.1,0.1-1.4,0.1h-0.4l0.3,2.2
  c0.5-0.1,1-0.2,1.5-0.2c4.8-0.5,7.4-0.8,9.1-1.1c0.4-0.1,0.4-0.1,0.6-0.1c0.3,0.6,0.6,1.3,0.8,2l1.9-1c-1-2.6-2.3-5.1-3.9-7.4
  l-1.8,0.7c0.6,0.8,1.1,1.7,1.5,2.5c0.4,0.7,0.6,1.1,0.8,1.5c-2.2,0.4-4.4,0.7-6.7,0.8c1.2-3,2.3-6,3.2-9.1c0.1-0.4,0.2-0.8,0.4-1.1
  L188.1,1.6z M209.1,5.4h1.9c0.6,0,1.1,0,1.7,0.1V3.7c-0.6,0.1-1.1,0.1-1.7,0.1h-1.9V2.7c0-0.5,0-1,0.1-1.5h-1.8
  c0.1,0.5,0.1,1,0.1,1.5v1.1h-1.3c0.1-0.3,0.1-0.4,0.2-0.8c0.1-0.3,0.1-0.6,0.2-0.9l-1.6-0.4c-0.1,1.4-0.6,2.7-1.2,3.9V4
  c-0.3,0-0.6,0.1-0.9,0.1h-0.5V2.8c0-0.6,0-1.1,0.1-1.6h-1.8c0.1,0.5,0.1,1.1,0.1,1.6v1.3h-0.8c-0.4,0-0.7,0-1.1-0.1v1.7
  c0.4-0.1,0.7-0.1,1.1-0.1h0.6c-0.4,1.7-1.2,3.4-2.2,4.8c0.3,0.5,0.6,1.1,0.7,1.8c0.8-1.2,1.3-2.4,1.7-3.8c-0.1,0.7-0.1,1.4-0.1,2.1
  V14c0,0.7,0,1.3-0.1,2h1.9c-0.1-0.7-0.1-1.3-0.1-2V9.9c0-0.7,0-1.6-0.1-2.1c0.2,0.7,0.6,1.4,1,2c0.2-0.5,0.4-0.9,0.7-1.3v0.6
  c0.6-0.1,1.2-0.1,1.8-0.1h1.1c-0.9,1.8-2.4,3.2-4.1,4.2c0.4,0.5,0.7,1,1,1.5c1.6-1,2.9-2.5,3.8-4.1c-0.1,0.6-0.1,1.2-0.1,1.6v1.9
  c0,0.6,0,1.2-0.1,1.9h1.8c-0.1-0.6-0.1-1.2-0.1-1.9v-2c0-0.5,0-1-0.1-1.6c0.5,0.9,1,1.7,1.7,2.4c0.5,0.6,1.1,1.2,1.8,1.7
  c0.2-0.6,0.6-1.2,1.1-1.7c-1.7-0.9-3-2.3-4-4h1.8c0.7,0,1.2,0,1.7,0.1V7.3c-0.6,0.1-1.1,0.1-1.7,0.1h-2.4V5.4L209.1,5.4z M207.4,5.4
  v2h-1.7c-0.6,0-1.2,0-1.8-0.1v0.9c-0.6-0.8-1.1-1.6-1.5-2.5h0.4c0.3,0,0.5,0,0.8,0.1c-0.1,0.1-0.1,0.2-0.3,0.4
  c0.5,0.3,0.9,0.6,1.3,1c0.4-0.6,0.7-1.2,0.9-1.8L207.4,5.4L207.4,5.4z M226.8,3.9l1.3-0.7c-0.5-0.6-1-1.3-1.6-1.8L225.1,2
  c0.6,0.6,1.1,1.2,1.5,1.9h-1.9c0-0.5,0-1,0-1.3c0-0.4,0-0.9,0.1-1.3h-1.9c0.1,0.4,0.1,0.8,0.1,1.2c0,0.5,0,0.5,0,1.3h-6.3
  c-0.6,0-1.3,0-1.9-0.1v1.8c0.6-0.1,1.3-0.1,1.9-0.1h6.4c0,1.3,0.2,2.6,0.4,3.8c0.2,1.7,0.8,3.4,1.8,4.8c0.5,0.8,1.2,1.4,2.1,1.6
  c0.5,0,0.9-0.3,1.1-0.7c0.5-0.9,0.8-2,0.9-3c-0.5-0.2-1.1-0.5-1.5-0.9c-0.2,1.7-0.4,2.4-0.6,2.4c-0.1-0.1-0.3-0.2-0.4-0.3
  c-0.4-0.5-0.7-1-1-1.6c-0.7-2-1.1-4.1-1.1-6.2h2.3c0.6,0,1.2,0,1.9,0.1V3.8c-0.5,0.1-1,0.1-1.6,0.1H226.8L226.8,3.9z M218,9.1V13
  c-1.1,0.2-2.1,0.3-3.2,0.4l0.3,1.8c0.3-0.1,0.4-0.1,0.6-0.1c2.2-0.3,4.7-0.8,7.4-1.5v-1.6c-1.5,0.4-2.2,0.5-3.3,0.7V9.1h1.1
  c0.5,0,1.1,0,1.6,0.1V7.4c-0.5,0.1-1.1,0.1-1.6,0.1H217c-0.6,0-1.1,0-1.7-0.1v1.7c0.5-0.1,1.1-0.1,1.6-0.1L218,9.1L218,9.1z
   M233.8,7.6c0.5,0,0.9-0.1,1.4-0.1h5.3c0.5,0,1,0,1.4,0.1V6.4c0.9,0.6,1.8,1.1,2.7,1.5c0.2-0.6,0.5-1.2,0.9-1.8
  c-1.5-0.5-2.8-1.3-4.1-2.2c-1.1-0.7-2-1.6-2.7-2.7h-1.9c-0.7,1-1.5,1.9-2.5,2.7c-1.2,0.9-2.6,1.7-4,2.2c0.4,0.5,0.7,1.1,0.9,1.6
  c0.9-0.4,1.8-0.8,2.6-1.4V7.6z M235.2,5.9c-0.3,0-0.4,0-0.7,0c1.3-0.8,2.4-1.9,3.3-3.1c0.9,1.2,2.1,2.3,3.3,3.1c-0.3,0-0.4,0-0.7,0
  H235.2L235.2,5.9z M235.4,10.5c-0.5,1.1-1,2.2-1.7,3.2c-0.8,0.1-1.3,0.1-1.4,0.1c-0.2,0-0.5,0-0.9,0l0.2,1.9
  c0.7-0.1,1.4-0.2,2.1-0.2c0.6,0,3.8-0.3,5.4-0.5c0.6-0.1,1.6-0.2,2.9-0.4c0.3,0.4,0.4,0.6,1,1.4l1.5-1c-1.1-1.5-2.3-3-3.7-4.3
  l-1.6,0.7c0.9,0.9,1.2,1.2,1.7,1.8c-2.2,0.2-2.2,0.2-5.1,0.4c0.7-1,1.2-2,1.7-3.1h5.5c0.6,0,1.2,0,1.9,0.1V8.8
  c-0.6,0.1-1.2,0.1-1.9,0.1h-10c-0.6,0-1.3,0-1.9-0.1v1.9c0.6-0.1,1.3-0.1,1.9-0.1L235.4,10.5L235.4,10.5z M250.7,9.7
  c0.6,0.7,1.3,1.3,2.1,1.8c0.2-0.6,0.5-1.1,0.9-1.6c-1-0.5-1.8-1.2-2.6-2c0.6-0.8,1.2-1.8,1.6-2.7c0.1-0.2,0.2-0.5,0.3-0.7l-0.8-0.8
  c-0.3,0-0.6,0.1-0.9,0.1h-0.7V2.4c0-0.4,0-0.8,0.1-1.2h-1.9c0.1,0.4,0.1,0.8,0.1,1.2v1.4h-0.8c-0.4,0-0.8,0-1.3-0.1v1.8
  c0.4,0,0.9-0.1,1.3-0.1h2.6c-0.4,0.9-1,1.7-1.8,2.5c-0.8,0.9-1.7,1.6-2.8,2.2c0.4,0.5,0.6,1.1,0.8,1.7c0.6-0.4,1.2-0.8,1.8-1.4v4
  c0,0.6,0,1.1-0.1,1.7h1.9c-0.1-0.5-0.1-1.1-0.1-1.6L250.7,9.7L250.7,9.7z M257.5,7.3h1.7c0.5,0,1,0,1.6,0.1V5.6
  c-0.5,0.1-1,0.1-1.6,0.1h-1.7V2.8c0-0.6,0-1.1,0.1-1.7h-2c0.1,0.6,0.1,1.1,0.1,1.7v2.8h-1.2c-0.5,0-1,0-1.6-0.1v1.8
  c0.5-0.1,1-0.1,1.6-0.1h1.2v6.2H254c-0.6,0-1.2,0-1.8-0.1v1.9c0.6-0.1,1.2-0.1,1.8-0.1h5.5c0.6,0,1.2,0,1.8,0.1v-1.9
  c-0.6,0.1-1.2,0.1-1.8,0.1h-1.9V7.3z"/>
<path id="Kansai_Integrated_Systems_1_" class="st0" d="M74.2,25.9l1.7-1.8c0.3-0.4,0.6-0.6,0.8-0.9h-1.5c-0.2,0.3-0.4,0.5-0.6,0.8
  l-2,2.1v-1.9c0-0.3,0-0.7,0.1-1h-1.2c0,0.3,0.1,0.7,0.1,1v4.3c0,0.3,0,0.7-0.1,1h1.2c-0.1-0.3-0.1-0.7-0.1-1v-1.2l0.9-0.9l1.6,2.2
  c0.2,0.3,0.4,0.5,0.5,0.8H77c-0.3-0.3-0.5-0.7-0.8-1L74.2,25.9z M80.9,29.7H82c0-0.3-0.1-0.7-0.1-1v-2.1c0.1-0.4-0.1-0.8-0.4-1.1
  c-0.4-0.4-1-0.5-1.6-0.5c-0.5,0-1.1,0.1-1.5,0.4c-0.3,0.2-0.5,0.5-0.6,0.9l1,0.2c0-0.2,0.2-0.4,0.3-0.5c0.2-0.2,0.5-0.2,0.8-0.2
  c0.4-0.1,0.8,0.1,0.9,0.5c0,0.1,0,0.1,0,0.2v0.4c-0.8,0-1.5,0.1-2.2,0.3c-0.5,0.2-0.9,0.7-0.9,1.3c0,0.7,0.6,1.4,1.3,1.4
  c0.1,0,0.1,0,0.2,0c0.3,0,0.5,0,0.8-0.1c0.3-0.1,0.6-0.3,0.8-0.5V29.7L80.9,29.7z M80.9,27.9c0,0.3-0.1,0.5-0.3,0.7
  c-0.3,0.3-0.7,0.4-1.1,0.4c-0.3,0.1-0.7-0.2-0.7-0.5c0,0,0-0.1,0-0.1c0-0.6,0.6-0.9,2.1-0.9V27.9L80.9,27.9z M84.5,29.7
  c0-0.3-0.1-0.7-0.1-1V27c0.2-0.6,0.7-1.1,1.4-1.2c0.3,0,0.5,0.1,0.7,0.3c0.1,0.2,0.2,0.5,0.1,0.7v1.8c0,0.3,0,0.7-0.1,1h1.2
  c0-0.3-0.1-0.7-0.1-1v-1.9c0-0.4-0.1-0.8-0.3-1.1C87.1,25.2,86.6,25,86,25c-0.7,0-1.3,0.3-1.6,0.8c0-0.2,0-0.2,0-0.3v-0.4h-1.1
  c0,0.3,0.1,0.7,0.1,1v2.5c0,0.3,0,0.7-0.1,1H84.5z M88.6,28.4c0,0.3,0.2,0.5,0.3,0.7c0.4,0.5,1.1,0.8,1.8,0.7c0.6,0,1.2-0.1,1.7-0.5
  c0.2-0.2,0.4-0.6,0.4-0.9c0-0.4-0.2-0.8-0.5-1c-0.4-0.3-0.9-0.4-1.4-0.5c-0.3,0-0.5-0.1-0.8-0.2c-0.1-0.1-0.2-0.2-0.2-0.4
  c0.1-0.4,0.4-0.6,0.8-0.6c0,0,0,0,0,0c0.4-0.1,0.8,0.2,0.9,0.6c0,0,0,0,0,0l1.1-0.1c-0.1-0.3-0.2-0.6-0.4-0.8
  c-0.4-0.3-1-0.5-1.5-0.5c-0.6-0.1-1.2,0.2-1.6,0.6c-0.2,0.2-0.3,0.5-0.2,0.8c0,0.5,0.3,0.9,0.7,1.1c0.4,0.2,0.8,0.3,1.2,0.3
  c0.3,0,0.6,0.1,0.8,0.3c0.1,0.1,0.2,0.2,0.2,0.4c-0.1,0.4-0.5,0.7-0.9,0.6c0,0,0,0,0,0c-0.5,0.1-1-0.3-1.1-0.7c0,0,0,0,0,0
  L88.6,28.4z M97.3,29.7h1.1c0-0.3-0.1-0.7-0.1-1v-2.1c0.1-0.4-0.1-0.8-0.4-1.1c-0.4-0.4-1-0.5-1.6-0.5c-0.5,0-1.1,0.1-1.5,0.4
  c-0.3,0.2-0.5,0.5-0.6,0.9l1,0.2c0-0.2,0.2-0.4,0.3-0.5c0.2-0.2,0.5-0.2,0.8-0.2c0.4-0.1,0.8,0.1,0.9,0.5c0,0.1,0,0.1,0,0.2v0.4
  c-0.8,0-1.5,0.1-2.2,0.3c-0.5,0.2-0.9,0.7-0.9,1.3c0,0.7,0.6,1.4,1.3,1.4c0.1,0,0.1,0,0.2,0c0.3,0,0.5,0,0.8-0.1
  c0.3-0.1,0.6-0.3,0.8-0.5L97.3,29.7L97.3,29.7z M97.3,27.9c0,0.3-0.1,0.5-0.3,0.7c-0.3,0.3-0.7,0.4-1.1,0.4
  c-0.3,0.1-0.7-0.2-0.7-0.5c0,0,0-0.1,0-0.1c0-0.6,0.6-0.9,2.1-0.9V27.9L97.3,27.9z M99.8,23.3v1h1.2v-1H99.8z M99.8,25.1
  c0,0.3,0.1,0.7,0.1,1v2.5c0,0.3,0,0.7-0.1,1h1.2c0-0.3-0.1-0.7-0.1-1.1v-2.5c0-0.3,0-0.7,0.1-1H99.8z M105.8,23.3
  c0.1,0.3,0.1,0.7,0.1,1v4.3c0,0.3,0,0.7-0.1,1h1.2c-0.1-0.3-0.1-0.7-0.1-1v-4.3c0-0.3,0-0.7,0.1-1H105.8z M109.4,29.7
  c0-0.3-0.1-0.7-0.1-1V27c0.2-0.6,0.7-1.1,1.4-1.2c0.3,0,0.5,0.1,0.7,0.3c0.1,0.2,0.2,0.5,0.1,0.7v1.8c0,0.3,0,0.7-0.1,1h1.2
  c0-0.3-0.1-0.7-0.1-1v-1.9c0-0.4-0.1-0.8-0.3-1.1c-0.3-0.4-0.8-0.6-1.4-0.6c-0.7,0-1.3,0.3-1.6,0.8c0-0.2,0-0.2,0-0.3v-0.4h-1.1
  c0,0.3,0.1,0.7,0.1,1v2.5c0,0.3,0,0.7-0.1,1H109.4L109.4,29.7z M114.2,23.9c0,0.3,0.1,0.7,0.1,1v0.2H114c-0.2,0-0.5,0-0.7-0.1V26
  c0.2,0,0.5-0.1,0.7-0.1h0.3v2.7c-0.1,0.6,0.3,1.1,0.9,1.2c0.1,0,0.3,0,0.4,0c0.3,0,0.7,0,1-0.2l-0.1-0.9c-0.2,0.1-0.4,0.2-0.6,0.2
  c-0.2,0.1-0.5-0.1-0.5-0.3c0-0.1,0-0.1,0-0.2V26h0.4c0.3,0,0.5,0,0.8,0.1v-0.9c-0.3,0-0.5,0.1-0.8,0.1h-0.3v-0.2c0-0.3,0-0.7,0.1-1
  L114.2,23.9L114.2,23.9z M121.5,27.7c0-0.1,0-0.1,0-0.2c0-0.4-0.1-0.8-0.2-1.2c-0.3-0.8-1.1-1.3-2-1.3c-1.3,0.1-2.4,1.3-2.2,2.6
  c0.1,1.2,1.1,2.2,2.3,2.3c0.6,0,1.2-0.2,1.7-0.6c0.2-0.2,0.4-0.5,0.5-0.7l-0.9-0.3c0,0.2-0.1,0.3-0.2,0.4c-0.2,0.3-0.6,0.4-1,0.4
  c-0.4,0-0.7-0.2-1-0.4c-0.2-0.3-0.3-0.6-0.3-0.9L121.5,27.7L121.5,27.7z M118,26.9c0.1-0.6,0.6-1.1,1.2-1.1c0.3,0,0.6,0.1,0.9,0.3
  c0.2,0.2,0.3,0.5,0.3,0.8H118L118,26.9z M122.6,30.4c0.5,0.6,1.2,0.9,2,0.8c0.7,0,1.3-0.1,1.9-0.5c0.5-0.5,0.8-1.2,0.7-2v-2.7
  c0-0.3,0-0.7,0.1-1h-1.1v0.4c0,0.1,0,0.2,0,0.3c-0.3-0.5-0.9-0.8-1.5-0.7c-1.1,0-2.1,0.9-2.1,2c0,0.1,0,0.2,0,0.3
  c-0.1,1.1,0.7,2.1,1.8,2.2c0.1,0,0.2,0,0.3,0c0.6,0,1.2-0.2,1.6-0.7c0,0.4-0.1,0.7-0.2,1.1c-0.3,0.4-0.8,0.6-1.3,0.6
  c-0.5,0-1-0.2-1.2-0.6L122.6,30.4z M123.5,27.3c-0.1-0.7,0.4-1.4,1.1-1.5c0.1,0,0.1,0,0.2,0c0.3,0,0.6,0.1,0.8,0.3
  c0.3,0.3,0.5,0.7,0.5,1.2c0,0.3-0.1,0.6-0.2,0.9c-0.2,0.4-0.7,0.6-1.1,0.6c-0.3,0-0.6-0.1-0.8-0.4C123.6,28.1,123.5,27.8,123.5,27.3
  L123.5,27.3z M132.5,25.1c-0.2-0.1-0.5-0.1-0.8-0.1c-0.6-0.1-1.2,0.3-1.5,0.8v-0.8h-1.1c0.1,0.3,0.1,0.7,0.1,1v2.5
  c0,0.3,0,0.7-0.1,1h1.2c0-0.3-0.1-0.7-0.1-1v-1.5c0-0.3,0.1-0.6,0.3-0.8c0.2-0.3,0.6-0.4,0.9-0.4c0.2,0,0.5,0,0.7,0.1L132.5,25.1z
   M136.7,29.7h1.1c0-0.3-0.1-0.7-0.1-1v-2.1c0.1-0.4-0.1-0.8-0.4-1.1c-0.4-0.4-1-0.5-1.6-0.5c-0.5,0-1.1,0.1-1.5,0.4
  c-0.3,0.2-0.5,0.5-0.6,0.9l1,0.2c0-0.2,0.2-0.4,0.3-0.5c0.2-0.2,0.5-0.2,0.8-0.2c0.4-0.1,0.8,0.1,0.9,0.5c0,0.1,0,0.1,0,0.2v0.4
  c-0.8,0-1.5,0.1-2.2,0.3c-0.5,0.2-0.9,0.7-0.9,1.3c0,0.7,0.6,1.4,1.3,1.4c0.1,0,0.1,0,0.2,0c0.3,0,0.5,0,0.8-0.1
  c0.3-0.1,0.6-0.3,0.8-0.5L136.7,29.7L136.7,29.7z M136.7,27.9c0,0.3-0.1,0.5-0.3,0.7c-0.3,0.3-0.7,0.4-1.1,0.4
  c-0.3,0.1-0.7-0.2-0.7-0.5c0,0,0-0.1,0-0.1c0-0.6,0.6-0.9,2.1-0.9V27.9L136.7,27.9z M139.6,23.9c0,0.3,0.1,0.7,0.1,1v0.2h-0.3
  c-0.2,0-0.5,0-0.7-0.1V26c0.2,0,0.5-0.1,0.7-0.1h0.3v2.7c-0.1,0.6,0.3,1.1,0.9,1.2c0.1,0,0.3,0,0.4,0c0.3,0,0.7,0,1-0.2l-0.1-0.9
  c-0.2,0.1-0.4,0.2-0.6,0.2c-0.2,0.1-0.5-0.1-0.5-0.3c0-0.1,0-0.1,0-0.2V26h0.4c0.3,0,0.5,0,0.8,0.1v-0.9c-0.3,0-0.5,0.1-0.8,0.1
  h-0.3v-0.2c0-0.3,0-0.7,0.1-1L139.6,23.9L139.6,23.9z M146.9,27.7c0-0.1,0-0.1,0-0.2c0-0.4-0.1-0.8-0.2-1.2c-0.3-0.8-1.1-1.3-2-1.3
  c-1.3,0.1-2.4,1.3-2.2,2.6c0.1,1.2,1.1,2.2,2.3,2.3c0.6,0,1.2-0.2,1.7-0.6c0.2-0.2,0.4-0.5,0.5-0.7l-0.9-0.3c0,0.2-0.1,0.3-0.2,0.4
  c-0.2,0.3-0.6,0.4-1,0.4c-0.4,0-0.7-0.2-1-0.4c-0.2-0.3-0.3-0.6-0.3-0.9L146.9,27.7L146.9,27.7z M143.4,26.9
  c0.1-0.6,0.6-1.1,1.2-1.1c0.3,0,0.6,0.1,0.9,0.3c0.2,0.2,0.3,0.5,0.3,0.8H143.4L143.4,26.9z M151.7,29.7h1.1c0-0.4-0.1-0.7-0.1-1.1
  v-4.2c0-0.4,0-0.7,0.1-1.1h-1.1c0,0.4,0.1,0.7,0.1,1.1v0.8c0,0.1,0,0.2,0,0.3v0.3c-0.1-0.2-0.2-0.3-0.4-0.4
  c-0.4-0.3-0.8-0.4-1.2-0.4c-1.2,0-2.2,0.9-2.2,2.1c0,0.1,0,0.2,0,0.3c0,0.8,0.3,1.5,0.8,2c0.4,0.3,0.9,0.4,1.3,0.4
  c0.6,0.1,1.3-0.2,1.6-0.8V29.7L151.7,29.7z M148.9,27.4c-0.1-0.7,0.4-1.4,1.1-1.5c0.1,0,0.1,0,0.2,0c0.4,0,0.8,0.2,1,0.4
  c0.2,0.3,0.4,0.7,0.4,1.1c0,0.4-0.1,0.8-0.3,1.1c-0.3,0.3-0.6,0.5-1.1,0.5c-0.7,0-1.3-0.6-1.3-1.4C148.9,27.5,148.9,27.5,148.9,27.4
  L148.9,27.4z M157.9,27.8c0,0.2,0.1,0.5,0.2,0.7c0.1,0.4,0.4,0.7,0.7,0.9c0.5,0.3,1.1,0.4,1.7,0.4c0.7,0.1,1.4-0.2,1.9-0.6
  c0.3-0.4,0.5-0.9,0.5-1.4c0-0.5-0.2-1.1-0.7-1.4c-0.4-0.2-0.8-0.4-1.3-0.5c-0.4-0.1-0.8-0.2-1.1-0.3c-0.3-0.1-0.5-0.4-0.5-0.7
  c0.1-0.5,0.6-0.9,1.1-0.9c0,0,0,0,0.1,0c0.4,0,0.7,0.1,1,0.4c0.1,0.2,0.2,0.4,0.2,0.6l1.1-0.1c-0.1-0.3-0.2-0.7-0.4-0.9
  c-0.5-0.6-1.2-0.9-2-0.8c-1.4,0-2.3,0.7-2.3,1.8c0,0.5,0.2,1,0.6,1.3c0.4,0.3,0.8,0.4,1.2,0.5c0.5,0.1,0.9,0.2,1.4,0.4
  c0.3,0.2,0.4,0.4,0.4,0.7c0,0.6-0.5,1-1.1,1c0,0-0.1,0-0.1,0c-0.4,0-0.9-0.1-1.2-0.5c-0.2-0.2-0.2-0.5-0.2-0.7L157.9,27.8z
   M166,29.4l-0.3,0.6c-0.1,0.2-0.4,0.4-0.6,0.4c-0.2,0-0.4,0-0.6-0.1l-0.2,0.9c0.3,0.1,0.6,0.1,0.8,0.1c0.6,0.1,1.2-0.3,1.5-0.9
  l1.8-4.3c0.2-0.6,0.4-0.9,0.4-1h-1.2c-0.1,0.3-0.2,0.6-0.3,0.9l-0.9,2.3l-1-2.3c-0.1-0.3-0.2-0.6-0.3-0.9h-1.2
  c0.2,0.3,0.3,0.7,0.5,1L166,29.4z M169.8,28.4c0,0.3,0.2,0.5,0.3,0.7c0.4,0.5,1.1,0.8,1.8,0.7c0.6,0,1.2-0.1,1.7-0.5
  c0.2-0.2,0.4-0.6,0.4-0.9c0-0.4-0.2-0.8-0.5-1c-0.4-0.3-0.9-0.4-1.4-0.5c-0.3,0-0.5-0.1-0.8-0.2c-0.1-0.1-0.2-0.2-0.2-0.4
  c0.1-0.4,0.4-0.6,0.8-0.6c0,0,0,0,0,0c0.4-0.1,0.8,0.2,0.9,0.6c0,0,0,0,0,0l1.1-0.1c-0.1-0.3-0.2-0.6-0.4-0.8
  c-0.4-0.3-1-0.5-1.5-0.5c-0.6-0.1-1.2,0.2-1.6,0.6c-0.2,0.2-0.3,0.5-0.2,0.8c0,0.5,0.3,0.9,0.7,1.1c0.4,0.2,0.8,0.3,1.2,0.3
  c0.3,0,0.6,0.1,0.8,0.3c0.1,0.1,0.2,0.2,0.2,0.4c-0.1,0.4-0.5,0.7-0.9,0.6c0,0,0,0,0,0c-0.5,0.1-1-0.3-1.1-0.7c0,0,0,0,0,0
  L169.8,28.4z M176,23.9c0,0.3,0.1,0.7,0.1,1v0.2h-0.3c-0.2,0-0.5,0-0.7-0.1V26c0.2,0,0.5-0.1,0.7-0.1h0.3v2.7
  c-0.1,0.6,0.3,1.1,0.9,1.2c0.1,0,0.3,0,0.4,0c0.3,0,0.7,0,1-0.2l-0.1-0.9c-0.2,0.1-0.4,0.2-0.6,0.2c-0.2,0.1-0.5-0.1-0.5-0.3
  c0-0.1,0-0.1,0-0.2V26h0.4c0.3,0,0.5,0,0.8,0.1v-0.9c-0.3,0-0.5,0.1-0.8,0.1h-0.3v-0.2c0-0.3,0-0.7,0.1-1L176,23.9L176,23.9z
   M183.2,27.7c0-0.1,0-0.1,0-0.2c0-0.4-0.1-0.8-0.2-1.2c-0.3-0.8-1.1-1.3-2-1.3c-1.3,0.1-2.4,1.3-2.2,2.6c0.1,1.2,1.1,2.2,2.3,2.3
  c0.6,0,1.2-0.2,1.7-0.6c0.2-0.2,0.4-0.5,0.5-0.7l-0.9-0.3c0,0.2-0.1,0.3-0.2,0.4c-0.2,0.3-0.6,0.4-1,0.4c-0.4,0-0.7-0.2-1-0.4
  c-0.2-0.3-0.3-0.6-0.3-0.9L183.2,27.7L183.2,27.7z M179.8,26.9c0.1-0.6,0.6-1.1,1.2-1.1c0.3,0,0.6,0.1,0.9,0.3
  c0.2,0.2,0.3,0.5,0.3,0.8H179.8L179.8,26.9z M185.5,29.7c0-0.3-0.1-0.7-0.1-1v-1.6c0.1-0.3,0.2-0.6,0.3-0.8c0.2-0.3,0.5-0.4,0.8-0.4
  c0.5,0,0.8,0.3,0.8,1v1.8c0,0.3,0,0.7-0.1,1h1.2c0-0.3-0.1-0.7-0.1-1v-1.6c0-0.4,0.2-0.7,0.5-1c0.2-0.2,0.4-0.2,0.7-0.2
  c0.5,0,0.8,0.3,0.8,1v1.8c0,0.3,0,0.7-0.1,1h1.2c-0.1-0.3-0.1-0.7-0.1-1v-2c0-0.4-0.1-0.9-0.4-1.2c-0.3-0.3-0.8-0.5-1.2-0.5
  c-0.3,0-0.6,0.1-0.9,0.2c-0.3,0.2-0.5,0.4-0.7,0.6c-0.1-0.2-0.2-0.4-0.3-0.5c-0.3-0.3-0.7-0.4-1-0.4c-0.6,0-1.2,0.3-1.5,0.8
  c0-0.1,0-0.2,0-0.3v-0.4h-1.1c0,0.3,0.1,0.7,0.1,1v2.5c0,0.3,0,0.7-0.1,1H185.5L185.5,29.7z M192.7,28.4c0,0.3,0.2,0.5,0.3,0.7
  c0.4,0.5,1.1,0.8,1.8,0.7c0.6,0,1.2-0.1,1.7-0.5c0.2-0.2,0.4-0.6,0.4-0.9c0-0.4-0.2-0.8-0.5-1c-0.4-0.3-0.9-0.4-1.4-0.5
  c-0.3,0-0.5-0.1-0.8-0.2c-0.1-0.1-0.2-0.2-0.2-0.4c0.1-0.4,0.4-0.6,0.8-0.6c0,0,0,0,0,0c0.4-0.1,0.8,0.2,0.9,0.6c0,0,0,0,0,0
  l1.1-0.1c-0.1-0.3-0.2-0.6-0.4-0.8c-0.4-0.3-1-0.5-1.5-0.5c-0.6-0.1-1.2,0.2-1.6,0.6c-0.2,0.2-0.3,0.5-0.2,0.8
  c0,0.5,0.3,0.9,0.7,1.1c0.4,0.2,0.8,0.3,1.2,0.3c0.3,0,0.6,0.1,0.8,0.3c0.1,0.1,0.2,0.2,0.2,0.4c-0.1,0.4-0.5,0.7-0.9,0.6
  c0,0,0,0,0,0c-0.5,0.1-1-0.3-1.1-0.7c0,0,0,0,0,0L192.7,28.4z"/>
<g>
  <path id="パス_1_" class="st0" d="M41.1,14.6h16.6c-1.2-0.8-2.6-1.3-4-1.6L50,12.1c-0.7-0.2-1.3-0.3-1.9-0.5h-8.9
    C39.6,12.8,40.2,13.8,41.1,14.6z"/>
  <path id="パス-2_1_" class="st0" d="M54.9,9.7l0.1,0.9h5.3v-1c0-0.6,0-1.2-0.1-1.9h-5.7C54.6,8.4,54.8,9.1,54.9,9.7z"/>
  <path id="パス-3_1_" class="st0" d="M45,6.8c0.1-0.2,0.3-0.4,0.5-0.6c0.7-0.7,2-1.1,3.8-1.1c2.2,0,3.7,0.6,4.6,1.6h6.1
    c-0.4-1.8-1.5-3.4-3-4.5C54.7,0.7,52-0.1,49.3,0c-3.2,0-5.8,0.9-7.6,2.6c-1.2,1.1-2,2.6-2.4,4.2L45,6.8L45,6.8z"/>
  <path id="パス-4_1_" class="st0" d="M42.5,15.6c1.5,0.7,3,1.2,4.6,1.6l3.6,0.8c1.4,0.3,2.7,0.8,3.9,1.5c0.6,0.4,0.9,1.2,0.9,2.4
    c0,1.5-0.8,2.6-2.5,3.2c-1.1,0.4-2.2,0.5-3.3,0.5c-2.6,0-4.4-0.7-5.4-2.2c-0.6-1-0.9-2.1-0.9-3.3L43.4,19h-5.3l0,1
    c0,3.2,1,5.8,3,7.7c2,1.9,4.9,2.8,8.4,2.8c2.8,0.1,5.5-0.7,7.9-2.1c2.4-1.5,3.7-3.9,3.7-7.3c0.1-2.1-0.7-4.1-2.1-5.6L42.5,15.6
    L42.5,15.6z"/>
  <path id="パス-5_1_" class="st0" d="M44.4,8.7c0-0.3,0.1-0.6,0.1-0.9h-5.5c-0.1,0.5-0.1,1-0.1,1.6c0,0.5,0,0.9,0.1,1.4h6.3
    C44.7,10.3,44.3,9.5,44.4,8.7z"/>
  <path id="パス-6_1_" class="st0" d="M34,6.8V0.7h-5.7v6.1H34L34,6.8z"/>
  <path id="パス-7_1_" class="st0" d="M28.3,7.8v2.9H34V7.8H28.3L28.3,7.8z"/>
  <path id="パス-8_1_" class="st0" d="M34,14.6v-2.9h-5.7v2.9L34,14.6L34,14.6z"/>
  <path id="パス-9_1_" class="st0" d="M28.3,15.6v14.2H34V15.6H28.3L28.3,15.6z"/>
  <path id="パス-10_1_" class="st0" d="M14.3,14.6L13,12.7l1.1-1.1H6.5l-1,0.9v-0.9H0v2.9C0,14.6,14.3,14.6,14.3,14.6z"/>
  <path id="パス-11_1_" class="st0" d="M0,10.7h5.5V7.8H0V10.7z"/>
  <path id="パス-12_1_" class="st0" d="M7.5,10.7h7.6l3.1-2.9h-7.7L7.5,10.7z"/>
  <path id="パス-13_1_" class="st0" d="M19.3,6.8l6.4-6.1h-8l-6.2,6.1H19.3L19.3,6.8z"/>
  <path id="パス-14_1_" class="st0" d="M0,15.6v14.2h5.5v-10l3.3-3.1l9.3,13.1h7.2L15,15.6H0z"/>
  <path id="パス-15_1_" class="st0" d="M5.5,6.8V0.7H0v6.1H5.5z"/>
</g>
</svg>
