<svg xmlns="http://www.w3.org/2000/svg" width="12.625" height="14.97" viewBox="0 0 12.625 14.97">
  <defs>
    <style>
      .cls-1 {
        fill: #b3bbce;
        fill-rule: evenodd;
      }
    </style>
  </defs>
  <path id="icon_tel.svg" class="cls-1" d="M940.026,2559.59a11.181,11.181,0,0,0,1.173,1.38,7.239,7.239,0,0,0,.915.78,3.175,3.175,0,0,0,.682.39l0.192,0.06a0.7,0.7,0,0,0,.413.02,0.88,0.88,0,0,0,.364-0.16l1.01-.77a0.338,0.338,0,0,1,.274-0.06,0.327,0.327,0,0,1,.124.03c0.024,0.02.05,0.03,0.078,0.05l2.732,2.18a0.251,0.251,0,0,1,.107.13,0.137,0.137,0,0,1-.07.11l-2.4,1.8a0.041,0.041,0,0,0-.025.02,0.709,0.709,0,0,1-.21.1,0.954,0.954,0,0,1-.273.05H945.03a1.077,1.077,0,0,1-.15-0.02,4.734,4.734,0,0,1-.871-0.22,6.367,6.367,0,0,1-1.443-.68,12.494,12.494,0,0,1-1.949-1.45,15.985,15.985,0,0,1-2.237-2.5,17.084,17.084,0,0,1-1.491-2.26,14.106,14.106,0,0,1-.878-1.93,9.384,9.384,0,0,1-.425-1.53,7.743,7.743,0,0,1-.126-1.14,3.277,3.277,0,0,1,.035-0.66c0.026-.14.045-0.23,0.055-0.29a0.878,0.878,0,0,1,.122-0.24,0.653,0.653,0,0,1,.159-0.18c0.009,0,.017-0.01.025-0.01l2.4-1.81a0.117,0.117,0,0,1,.108-0.04,0.621,0.621,0,0,1,.1.14l1.242,3.44a0.175,0.175,0,0,1,0,.14,0.4,0.4,0,0,1-.139.2l-0.883.67a0.76,0.76,0,0,0-.244.3,0.947,0.947,0,0,0-.1.3,0.579,0.579,0,0,0,0,.11,3.367,3.367,0,0,0,.209.96,7.471,7.471,0,0,0,.5,1.1A11.094,11.094,0,0,0,940.026,2559.59Z" transform="translate(-935.469 -2550.75)"/>
</svg>
