<svg xmlns="http://www.w3.org/2000/svg" width="18.844" height="22.44" viewBox="0 0 18.844 22.44">
  <defs>
    <style>
      .cls-1 {
        fill: #01a5dd;
        fill-rule: evenodd;
      }
    </style>
  </defs>
  <path id="icon_tel_b.svg" class="cls-1" d="M346.3,3202.8a16.426,16.426,0,0,0,1.751,2.07,11.533,11.533,0,0,0,1.366,1.18,4,4,0,0,0,1.018.57l0.287,0.11a1.245,1.245,0,0,0,.615.02,1.358,1.358,0,0,0,.543-0.23l1.509-1.17a0.539,0.539,0,0,1,.408-0.09c0.135,0.02.187,0.05,0.185,0.04a0.545,0.545,0,0,0,.116.08l4.078,3.27a0.388,0.388,0,0,1,.16.21,0.23,0.23,0,0,1-.106.16l-3.575,2.69-0.038.03a0.781,0.781,0,0,1-.313.16,1.274,1.274,0,0,1-.407.08c-0.035,0-.078-0.01-0.129-0.01s-0.132-.01-0.223-0.02a10.411,10.411,0,0,1-1.3-.33,10.7,10.7,0,0,1-2.154-1.02,20.02,20.02,0,0,1-2.908-2.18,24.857,24.857,0,0,1-3.339-3.75,25.575,25.575,0,0,1-2.226-3.4,21.754,21.754,0,0,1-1.31-2.89,14.352,14.352,0,0,1-.634-2.3,11.457,11.457,0,0,1-.188-1.71,5.063,5.063,0,0,1,.051-1c0.04-.2.068-0.34,0.083-0.43a1.356,1.356,0,0,1,.182-0.36,0.8,0.8,0,0,1,.238-0.26l0.036-.03,3.579-2.72a0.171,0.171,0,0,1,.16-0.05,0.806,0.806,0,0,1,.144.21l1.853,5.16a0.285,0.285,0,0,1-.006.22,0.584,0.584,0,0,1-.206.29l-1.319,1a1.34,1.34,0,0,0-.364.46,1.407,1.407,0,0,0-.145.45,0.928,0.928,0,0,0-.007.17,5.207,5.207,0,0,0,.312,1.44,11.492,11.492,0,0,0,.739,1.64A16.284,16.284,0,0,0,346.3,3202.8Z" transform="translate(-339.5 -3189.53)"/>
</svg>
