<svg id="icon_doc.svg" xmlns="http://www.w3.org/2000/svg" width="26" height="26" viewBox="0 0 26 26">
  <defs>
    <style>
      .cls-1 {
        fill: #3c3;
      }

      .cls-1, .cls-2 {
        fill-rule: evenodd;
      }

      .cls-2 {
        fill: #fff;
      }
    </style>
  </defs>
  <path id="b" class="cls-1" d="M1033,5600a13,13,0,1,1,13,13A13,13,0,0,1,1033,5600Z" transform="translate(-1033 -5587)"/>
  <path id="d" class="cls-2" d="M1050.62,5593h-5.61a1.6,1.6,0,0,0-1.07.41l-3.5,3.22a1.358,1.358,0,0,0-.44.99v8.11a1.331,1.331,0,0,0,1.38,1.27h9.24a1.331,1.331,0,0,0,1.38-1.27v-11.46A1.331,1.331,0,0,0,1050.62,5593Zm-5.65,1.29v2.87a0.384,0.384,0,0,1-.47.43h-3.1Zm5.81,10.75a0.584,0.584,0,0,1-.61.56h-8.34a0.584,0.584,0,0,1-.61-0.56v-6.55h3.25a1.361,1.361,0,0,0,1.63-1.36v-3.01h4.07a0.584,0.584,0,0,1,.61.56v10.36Z" transform="translate(-1033 -5587)"/>
</svg>
